# This file uses centimeters as units for non-parametric coordinates.

mtllib Banner.mtl
g default
v -0.031487 -3.368543 -0.101528
v -0.061245 -3.368543 -0.086365
v -0.084862 -3.368543 -0.062747
v -0.100025 -3.368543 -0.032989
v -0.105249 -3.368543 0.000000
v -0.100025 -3.368543 0.032988
v -0.084862 -3.368543 0.062746
v -0.061245 -3.368543 0.086363
v -0.031487 -3.368543 0.101526
v 0.001502 -3.368543 0.106751
v 0.034491 -3.368543 0.101526
v 0.064249 -3.368543 0.086363
v 0.087866 -3.368543 0.062746
v 0.103029 -3.368543 0.032988
v 0.108254 -3.368543 0.000000
v 0.103029 -3.368543 -0.032989
v 0.087866 -3.368543 -0.062747
v 0.064249 -3.368543 -0.086365
v 0.034491 -3.368543 -0.101526
v 0.001502 -3.368543 -0.106752
v -0.031487 1.359288 -0.101528
v -0.061245 1.359288 -0.086365
v -0.084862 1.359288 -0.062747
v -0.100025 1.359288 -0.032989
v -0.105249 1.359288 0.000000
v -0.100025 1.359288 0.032988
v -0.084862 1.359288 0.062746
v -0.061245 1.359288 0.086363
v -0.031487 1.359288 0.101526
v 0.001502 1.359288 0.106751
v 0.034491 1.359288 0.101526
v 0.064249 1.359288 0.086363
v 0.087866 1.359288 0.062746
v 0.103029 1.359288 0.032988
v 0.108254 1.359288 0.000000
v 0.103029 1.359288 -0.032989
v 0.087866 1.359288 -0.062747
v 0.064249 1.359288 -0.086365
v 0.034491 1.359288 -0.101526
v 0.001502 1.359288 -0.106752
v 0.001502 -3.368543 0.000000
v 0.001502 1.359288 0.000000
v -0.031487 -3.275996 -0.101528
v -0.061245 -3.275996 -0.086365
v -0.084862 -3.275996 -0.062747
v -0.100025 -3.275996 -0.032989
v -0.105249 -3.275996 0.000000
v -0.100025 -3.275996 0.032988
v -0.084862 -3.275996 0.062746
v -0.061245 -3.275996 0.086363
v -0.031487 -3.275996 0.101526
v 0.001502 -3.275996 0.106751
v 0.034491 -3.275996 0.101526
v 0.064249 -3.275996 0.086363
v 0.087866 -3.275996 0.062746
v 0.103029 -3.275996 0.032988
v 0.108254 -3.275996 0.000000
v 0.103029 -3.275996 -0.032989
v 0.087866 -3.275996 -0.062747
v 0.064249 -3.275996 -0.086365
v 0.034491 -3.275996 -0.101526
v 0.001502 -3.275996 -0.106752
v -0.187925 -3.368543 -0.582983
v -0.358802 -3.368543 -0.495913
v -0.358801 -3.275996 -0.495913
v -0.187925 -3.275996 -0.582983
v -0.494411 -3.368543 -0.360307
v -0.494411 -3.275996 -0.360307
v -0.581482 -3.368543 -0.189419
v -0.581482 -3.275996 -0.189419
v -0.611482 -3.368543 0.000000
v -0.611482 -3.275996 0.000000
v -0.581482 -3.368543 0.189419
v -0.581482 -3.275996 0.189419
v -0.494409 -3.368543 0.360309
v -0.494411 -3.275996 0.360306
v -0.358798 -3.368543 0.495915
v -0.358801 -3.275996 0.495913
v -0.187923 -3.368543 0.582981
v -0.187925 -3.275996 0.582981
v 0.001501 -3.368543 0.612986
v 0.001501 -3.275996 0.612986
v 0.190929 -3.368543 0.582981
v 0.190929 -3.275996 0.582981
v 0.361808 -3.368543 0.495912
v 0.361808 -3.275996 0.495914
v 0.497413 -3.368543 0.360307
v 0.497411 -3.275996 0.360309
v 0.584487 -3.368543 0.189422
v 0.584487 -3.275996 0.189422
v 0.614484 -3.368543 0.000000
v 0.614484 -3.275996 -0.000001
v 0.584487 -3.368543 -0.189422
v 0.584487 -3.275996 -0.189423
v 0.497415 -3.368543 -0.360307
v 0.497413 -3.275996 -0.360309
v 0.361809 -3.368543 -0.495913
v 0.361808 -3.275996 -0.495914
v 0.190930 -3.368543 -0.582982
v 0.190929 -3.275996 -0.582981
v 0.001503 -3.368543 -0.612986
v 0.001504 -3.275996 -0.612985
v 0.792779 -0.929685 0.128959
v 0.792779 -0.929685 0.103978
v 0.792779 3.368543 0.128959
v 0.792779 3.368543 0.103978
v -0.792779 3.368543 0.128959
v -0.792779 3.368543 0.103978
v -0.792779 -0.929685 0.128959
v -0.792779 -0.929685 0.103978
v 0.000000 3.368543 0.128959
v 0.000000 3.368543 0.103978
v 0.000000 -1.764581 0.103978
v 0.000000 -1.764581 0.128959
vt 0.164336 0.193655
vt 0.301821 0.046183
vt 0.310055 0.945053
vt 0.171230 0.946325
vt 0.441985 0.191111
vt 0.448880 0.943782
vt 0.607085 0.945067
vt 0.600537 0.046183
vt 0.740429 0.191374
vt 0.745912 0.944056
vt 0.462775 0.193396
vt 0.468258 0.946078
vt 0.016987 0.623813
vt 0.018774 0.624408
vt 0.016284 0.946968
vt 0.014576 0.947733
vt 0.073575 0.959237
vt 0.073639 0.957336
vt 0.135190 0.949235
vt 0.136832 0.950121
vt 0.140111 0.625340
vt 0.141887 0.624719
vt 0.079075 0.566635
vt 0.079093 0.564809
vt 0.838883 0.132266
vt 0.844731 0.132359
vt 0.831790 0.943983
vt 0.825942 0.943890
vt 0.850579 0.132453
vt 0.837639 0.944076
vt 0.856427 0.132546
vt 0.843487 0.944169
vt 0.862275 0.132639
vt 0.849335 0.944263
vt 0.868124 0.132732
vt 0.855183 0.944356
vt 0.873972 0.132826
vt 0.861031 0.944449
vt 0.879820 0.132919
vt 0.866879 0.944542
vt 0.885668 0.133012
vt 0.872727 0.944636
vt 0.891516 0.133105
vt 0.878575 0.944729
vt 0.780402 0.131334
vt 0.767461 0.942957
vt 0.786250 0.131427
vt 0.773309 0.943051
vt 0.792098 0.131520
vt 0.779157 0.943144
vt 0.797946 0.131613
vt 0.785006 0.943237
vt 0.803794 0.131707
vt 0.790854 0.943330
vt 0.809642 0.131800
vt 0.796702 0.943424
vt 0.815490 0.131893
vt 0.802550 0.943517
vt 0.821339 0.131986
vt 0.808398 0.943610
vt 0.827187 0.132080
vt 0.814246 0.943703
vt 0.833035 0.132173
vt 0.820094 0.943796
vt 0.774554 0.131240
vt 0.761613 0.942864
vt 0.118134 0.855354
vt 0.116043 0.869143
vt 0.073557 0.855648
vt 0.109793 0.881611
vt 0.099996 0.891538
vt 0.087611 0.897952
vt 0.073851 0.900225
vt 0.060061 0.898133
vt 0.047593 0.891884
vt 0.037666 0.882087
vt 0.031252 0.869702
vt 0.028980 0.855941
vt 0.031071 0.842152
vt 0.037321 0.829684
vt 0.047117 0.819757
vt 0.059502 0.813343
vt 0.073263 0.811071
vt 0.087052 0.813162
vt 0.099520 0.819411
vt 0.109447 0.829208
vt 0.115861 0.841593
vt 0.083253 0.649709
vt 0.085493 0.648546
vt 0.108211 0.679322
vt 0.095349 0.685999
vt 0.080764 0.650123
vt 0.081054 0.688374
vt 0.078268 0.649747
vt 0.066723 0.686216
vt 0.076011 0.648618
vt 0.053762 0.679735
vt 0.074213 0.646847
vt 0.043437 0.669566
vt 0.073050 0.644607
vt 0.036760 0.656703
vt 0.072636 0.642118
vt 0.034385 0.642408
vt 0.073012 0.639622
vt 0.036543 0.628078
vt 0.074141 0.637365
vt 0.043024 0.615116
vt 0.075912 0.635567
vt 0.053194 0.604791
vt 0.078152 0.634404
vt 0.066056 0.598114
vt 0.080641 0.633990
vt 0.080351 0.595739
vt 0.083137 0.634366
vt 0.094681 0.597897
vt 0.085394 0.635495
vt 0.107643 0.604378
vt 0.087192 0.637266
vt 0.117968 0.614547
vt 0.088355 0.639506
vt 0.124645 0.627410
vt 0.088769 0.641995
vt 0.127020 0.641705
vt 0.088393 0.644491
vt 0.124862 0.656035
vt 0.087264 0.646748
vt 0.118381 0.668997
vt 0.089522 0.736760
vt 0.090496 0.739089
vt 0.082658 0.740997
vt 0.087877 0.734846
vt 0.085721 0.733535
vt 0.083265 0.732953
vt 0.080750 0.733159
vt 0.078421 0.734132
vt 0.076508 0.735778
vt 0.075196 0.737934
vt 0.074614 0.740389
vt 0.074820 0.742905
vt 0.075794 0.745233
vt 0.077439 0.747147
vt 0.079595 0.748459
vt 0.082051 0.749040
vt 0.084566 0.748834
vt 0.086895 0.747861
vt 0.088808 0.746216
vt 0.090120 0.744060
vt 0.090702 0.741604
vt 0.122074 0.716670
vt 0.127663 0.730041
vt 0.112628 0.705680
vt 0.100247 0.698147
vt 0.086145 0.694809
vt 0.071702 0.695992
vt 0.058331 0.701581
vt 0.047341 0.711027
vt 0.039809 0.723407
vt 0.036470 0.737509
vt 0.037653 0.751953
vt 0.043242 0.765324
vt 0.052688 0.776313
vt 0.065068 0.783846
vt 0.079170 0.787184
vt 0.093614 0.786002
vt 0.106985 0.780413
vt 0.117974 0.770967
vt 0.125507 0.758587
vt 0.128846 0.744484
vt 0.344695 0.980383
vt 0.320044 0.980315
vt 0.320077 0.968419
vt 0.344728 0.968488
vt 0.295394 0.980246
vt 0.295427 0.968351
vt 0.270742 0.980178
vt 0.270775 0.968283
vt 0.246092 0.980110
vt 0.246125 0.968214
vt 0.221441 0.980041
vt 0.221474 0.968146
vt 0.196789 0.979973
vt 0.196822 0.968077
vt 0.172138 0.979905
vt 0.172172 0.968009
vt 0.147488 0.979836
vt 0.147522 0.967941
vt 0.122837 0.979768
vt 0.122870 0.967872
vt 0.098185 0.979700
vt 0.098218 0.967804
vt 0.073535 0.979631
vt 0.073568 0.967736
vt 0.048885 0.979563
vt 0.048918 0.967668
vt 0.024233 0.979495
vt 0.517285 0.968965
vt 0.492601 0.980793
vt 0.492634 0.968897
vt 0.467950 0.980724
vt 0.467983 0.968829
vt 0.443299 0.980656
vt 0.443331 0.968761
vt 0.418649 0.980588
vt 0.418682 0.968692
vt 0.393998 0.980520
vt 0.394031 0.968624
vt 0.369346 0.980451
vt 0.369379 0.968556
vt 0.517252 0.980861
vt 0.024266 0.967599
vn -0.309016 0.000000 -0.951057
vn -0.587803 0.000000 -0.809004
vn -0.587803 0.000000 -0.809004
vn -0.309016 0.000000 -0.951057
vn -0.809016 0.000000 -0.587787
vn -0.809016 0.000000 -0.587787
vn -0.951057 0.000000 -0.309016
vn -0.951057 0.000000 -0.309016
vn -1.000000 0.000000 0.000000
vn -1.000000 0.000000 0.000000
vn -0.951056 0.000000 0.309020
vn -0.951056 0.000000 0.309020
vn -0.809011 0.000000 0.587794
vn -0.809011 0.000000 0.587794
vn -0.587793 0.000000 0.809011
vn -0.587793 0.000000 0.809011
vn -0.309029 0.000000 0.951053
vn -0.309029 0.000000 0.951053
vn 0.000000 0.000000 1.000000
vn 0.000000 0.000000 1.000000
vn 0.309029 0.000000 0.951053
vn 0.309029 0.000000 0.951053
vn 0.587793 0.000000 0.809011
vn 0.587793 0.000000 0.809011
vn 0.809011 0.000000 0.587794
vn 0.809011 0.000000 0.587794
vn 0.951051 0.000000 0.309033
vn 0.951051 0.000000 0.309033
vn 1.000000 0.000000 -0.000000
vn 1.000000 0.000000 -0.000000
vn 0.951053 0.000000 -0.309029
vn 0.951053 0.000000 -0.309029
vn 0.809016 0.000000 -0.587787
vn 0.809016 0.000000 -0.587787
vn 0.587784 0.000000 -0.809018
vn 0.587784 0.000000 -0.809018
vn 0.309016 0.000000 -0.951057
vn 0.309016 0.000000 -0.951057
vn 0.000029 0.000000 -1.000000
vn 0.000029 0.000000 -1.000000
vn 0.000000 -1.000000 -0.000001
vn 0.000000 -1.000000 0.000000
vn 0.000000 -1.000000 0.000000
vn 0.000000 -1.000000 0.000000
vn 0.000000 -1.000000 0.000001
vn 0.000000 -1.000000 0.000000
vn 0.000000 -1.000000 0.000000
vn 0.000000 -1.000000 0.000001
vn 0.000000 -1.000000 0.000001
vn 0.000000 -1.000000 -0.000001
vn 0.000000 -1.000000 -0.000001
vn 0.000000 -1.000000 -0.000000
vn 0.000000 -1.000000 0.000001
vn 0.000000 -1.000000 0.000001
vn 0.000000 -1.000000 0.000001
vn 0.000000 -1.000000 0.000000
vn 0.000000 -1.000000 -0.000000
vn 0.000000 -1.000000 -0.000000
vn 0.000000 -1.000000 -0.000001
vn 0.000000 -1.000000 0.000000
vn 0.000000 -1.000000 0.000000
vn 0.000000 1.000000 0.000000
vn 0.000000 1.000000 0.000000
vn 0.000000 1.000000 0.000000
vn 0.000000 1.000000 0.000000
vn 0.000000 1.000000 0.000004
vn 0.000000 1.000000 0.000000
vn 0.000000 1.000000 -0.000004
vn 0.000000 1.000000 0.000000
vn 0.000000 1.000000 0.000000
vn 0.000000 1.000000 0.000000
vn 0.000000 1.000000 0.000000
vn 0.000000 1.000000 0.000000
vn 0.000000 1.000000 0.000000
vn 0.000000 1.000000 0.000000
vn 0.000000 1.000000 -0.000004
vn 0.000000 1.000000 0.000000
vn 0.000000 1.000000 0.000004
vn 0.000000 1.000000 0.000000
vn 0.000000 1.000000 0.000000
vn 0.000000 1.000000 0.000000
vn 0.000000 1.000000 0.000000
vn -0.309022 0.000004 -0.951055
vn -0.587789 0.000003 -0.809014
vn -0.587788 0.000003 -0.809015
vn -0.309022 0.000004 -0.951055
vn -0.809017 0.000002 -0.587785
vn -0.809017 0.000002 -0.587785
vn -0.951056 0.000000 -0.309018
vn -0.951056 0.000000 -0.309018
vn -1.000000 0.000000 0.000000
vn -1.000000 0.000000 0.000000
vn -0.951056 -0.000003 0.309019
vn -0.951056 -0.000003 0.309019
vn -0.809014 -0.000003 0.587790
vn -0.809019 -0.000003 0.587783
vn -0.587780 0.000001 0.809021
vn -0.587786 0.000001 0.809016
vn -0.309021 0.000000 0.951055
vn -0.309025 0.000000 0.951054
vn 0.000000 -0.000001 1.000000
vn 0.000000 -0.000001 1.000000
vn 0.309023 -0.000005 0.951055
vn 0.309023 -0.000005 0.951055
vn 0.587788 -0.000008 0.809015
vn 0.587786 -0.000008 0.809016
vn 0.809019 -0.000001 0.587783
vn 0.809015 -0.000001 0.587787
vn 0.951056 0.000003 0.309018
vn 0.951056 0.000003 0.309018
vn 1.000000 -0.000000 0.000001
vn 1.000000 -0.000000 -0.000001
vn 0.951057 0.000000 -0.309015
vn 0.951057 0.000000 -0.309016
vn 0.809019 0.000001 -0.587783
vn 0.809015 0.000001 -0.587788
vn 0.587787 0.000002 -0.809016
vn 0.587785 0.000002 -0.809017
vn 0.309023 0.000008 -0.951055
vn 0.309021 0.000008 -0.951055
vn 0.000003 0.000008 -1.000000
vn 0.000005 0.000008 -1.000000
vn 0.000000 -1.000000 -0.000001
vn 0.000000 -1.000000 0.000000
vn 0.000000 1.000000 0.000000
vn 0.000000 1.000000 0.000001
vn 0.000000 1.000000 0.000001
vn 0.000000 1.000000 0.000000
vn 0.000000 -1.000000 -0.000000
vn 0.000000 1.000000 0.000000
vn 0.000000 1.000000 0.000000
vn 0.000000 -1.000000 0.000001
vn 0.000000 1.000000 0.000000
vn 0.000000 1.000000 0.000000
vn 0.000000 -1.000000 0.000000
vn 0.000000 1.000000 0.000000
vn 0.000000 1.000000 0.000000
vn 0.000000 -1.000000 0.000000
vn 0.000000 1.000000 0.000000
vn 0.000000 1.000000 0.000000
vn 0.000000 -1.000000 0.000001
vn 0.000000 1.000000 0.000001
vn 0.000000 1.000000 0.000001
vn 0.000000 -1.000000 0.000001
vn 0.000000 1.000000 0.000001
vn 0.000000 1.000000 0.000001
vn 0.000000 -1.000000 -0.000001
vn 0.000000 1.000000 -0.000000
vn 0.000000 1.000000 -0.000000
vn 0.000000 -1.000000 -0.000001
vn 0.000000 1.000000 -0.000000
vn 0.000000 1.000000 -0.000000
vn 0.000000 -1.000000 -0.000000
vn 0.000000 1.000000 0.000001
vn 0.000000 1.000000 0.000001
vn 0.000000 -1.000000 0.000001
vn 0.000000 1.000000 0.000001
vn 0.000000 1.000000 0.000001
vn 0.000000 -1.000000 0.000001
vn 0.000000 1.000000 0.000000
vn 0.000000 1.000000 0.000000
vn 0.000000 -1.000000 0.000001
vn 0.000000 1.000000 0.000000
vn 0.000000 1.000000 0.000000
vn 0.000000 -1.000000 0.000000
vn 0.000000 1.000000 0.000000
vn 0.000000 1.000000 0.000000
vn 0.000000 -1.000000 0.000000
vn 0.000000 1.000000 -0.000001
vn 0.000000 1.000000 -0.000001
vn 0.000000 -1.000000 -0.000000
vn 0.000000 1.000000 -0.000001
vn 0.000000 1.000000 -0.000001
vn 0.000000 -1.000000 -0.000001
vn 0.000000 1.000000 -0.000001
vn 0.000000 1.000000 -0.000001
vn 0.000000 -1.000000 0.000000
vn 0.000000 1.000000 -0.000001
vn 0.000000 1.000000 -0.000001
vn 0.000000 -1.000000 0.000000
vn 0.000000 1.000000 0.000001
vn 0.000000 1.000000 0.000001
vn 1.000000 0.000000 0.000000
vn 1.000000 0.000000 0.000000
vn 1.000000 0.000000 0.000000
vn 1.000000 0.000000 0.000000
vn 0.000000 1.000000 0.000000
vn 0.000000 1.000000 0.000000
vn 0.000000 1.000000 0.000000
vn 0.000000 1.000000 0.000000
vn -1.000000 0.000000 0.000000
vn -1.000000 0.000000 0.000000
vn -1.000000 0.000000 0.000000
vn -1.000000 0.000000 0.000000
vn -0.725161 -0.688579 0.000000
vn -0.725161 -0.688579 0.000000
vn 0.000000 -1.000000 0.000000
vn 0.000000 -1.000000 0.000000
vn 0.000000 0.000000 -1.000000
vn 0.000000 0.000000 -1.000000
vn 0.000000 0.000000 -1.000000
vn 0.000000 0.000000 -1.000000
vn 0.000000 0.000000 1.000000
vn 0.000000 0.000000 1.000000
vn 0.000000 0.000000 1.000000
vn 0.000000 0.000000 1.000000
vn 0.000000 1.000000 0.000000
vn 0.000000 1.000000 0.000000
vn -0.000000 0.000000 -1.000000
vn -0.000000 0.000000 -1.000000
vn 0.725161 -0.688579 0.000000
vn 0.725161 -0.688579 0.000000
vn 0.000000 0.000000 1.000000
vn 0.000000 0.000000 1.000000
s 1
g Banner
usemtl initialShadingGroup
f 43/25/1 44/26/2 22/27/3 21/28/4
f 44/26/2 45/29/5 23/30/6 22/27/3
f 45/29/5 46/31/7 24/32/8 23/30/6
f 46/31/7 47/33/9 25/34/10 24/32/8
f 47/33/9 48/35/11 26/36/12 25/34/10
f 48/35/11 49/37/13 27/38/14 26/36/12
f 49/37/13 50/39/15 28/40/16 27/38/14
f 50/39/15 51/41/17 29/42/18 28/40/16
f 51/41/17 52/43/19 30/44/20 29/42/18
f 52/65/19 53/45/21 31/46/22 30/66/20
f 53/45/21 54/47/23 32/48/24 31/46/22
f 54/47/23 55/49/25 33/50/26 32/48/24
f 55/49/25 56/51/27 34/52/28 33/50/26
f 56/51/27 57/53/29 35/54/30 34/52/28
f 57/53/29 58/55/31 36/56/32 35/54/30
f 58/55/31 59/57/33 37/58/34 36/56/32
f 59/57/33 60/59/35 38/60/36 37/58/34
f 60/59/35 61/61/37 39/62/38 38/60/36
f 61/61/37 62/63/39 40/64/40 39/62/38
f 62/63/39 43/25/1 21/28/4 40/64/40
s 2
f 2/128/41 1/129/42 41/130/43
f 3/131/44 2/128/41 41/130/43
f 4/132/45 3/131/44 41/130/43
f 5/133/46 4/132/45 41/130/43
f 6/134/47 5/133/46 41/130/43
f 7/135/48 6/134/47 41/130/43
f 8/136/49 7/135/48 41/130/43
f 9/137/50 8/136/49 41/130/43
f 10/138/51 9/137/50 41/130/43
f 11/139/52 10/138/51 41/130/43
f 12/140/53 11/139/52 41/130/43
f 13/141/54 12/140/53 41/130/43
f 14/142/55 13/141/54 41/130/43
f 15/143/56 14/142/55 41/130/43
f 16/144/57 15/143/56 41/130/43
f 17/145/58 16/144/57 41/130/43
f 18/146/59 17/145/58 41/130/43
f 19/147/60 18/146/59 41/130/43
f 20/148/61 19/147/60 41/130/43
f 1/129/42 20/148/61 41/130/43
s 3
f 21/67/62 22/68/63 42/69/64
f 22/68/63 23/70/65 42/69/64
f 23/70/65 24/71/66 42/69/64
f 24/71/66 25/72/67 42/69/64
f 25/72/67 26/73/68 42/69/64
f 26/73/68 27/74/69 42/69/64
f 27/74/69 28/75/70 42/69/64
f 28/75/70 29/76/71 42/69/64
f 29/76/71 30/77/72 42/69/64
f 30/77/72 31/78/73 42/69/64
f 31/78/73 32/79/74 42/69/64
f 32/79/74 33/80/75 42/69/64
f 33/80/75 34/81/76 42/69/64
f 34/81/76 35/82/77 42/69/64
f 35/82/77 36/83/78 42/69/64
f 36/83/78 37/84/79 42/69/64
f 37/84/79 38/85/80 42/69/64
f 38/85/80 39/86/81 42/69/64
f 39/86/81 40/87/82 42/69/64
f 40/87/82 21/67/62 42/69/64
s 4
f 63/169/83 64/170/84 65/171/85 66/172/86
f 64/170/84 67/173/87 68/174/88 65/171/85
f 67/173/87 69/175/89 70/176/90 68/174/88
f 69/175/89 71/177/91 72/178/92 70/176/90
f 71/177/91 73/179/93 74/180/94 72/178/92
f 73/179/93 75/181/95 76/182/96 74/180/94
f 75/181/95 77/183/97 78/184/98 76/182/96
f 77/183/97 79/185/99 80/186/100 78/184/98
f 79/185/99 81/187/101 82/188/102 80/186/100
f 81/187/101 83/189/103 84/190/104 82/188/102
f 83/189/103 85/191/105 86/192/106 84/190/104
f 85/191/105 87/193/107 88/194/108 86/192/106
f 87/193/107 89/195/109 90/210/110 88/194/108
f 89/209/109 91/197/111 92/198/112 90/196/110
f 91/197/111 93/199/113 94/200/114 92/198/112
f 93/199/113 95/201/115 96/202/116 94/200/114
f 95/201/115 97/203/117 98/204/118 96/202/116
f 97/203/117 99/205/119 100/206/120 98/204/118
f 99/205/119 101/207/121 102/208/122 100/206/120
f 101/207/121 63/169/83 66/172/86 102/208/122
s 2
f 1/129/42 2/128/41 64/149/123 63/150/124
s 5
f 44/88/125 43/89/126 66/90/127 65/91/128
s 2
f 2/128/41 3/131/44 67/151/129 64/149/123
s 5
f 45/92/130 44/88/125 65/91/128 68/93/131
s 2
f 3/131/44 4/132/45 69/152/132 67/151/129
s 5
f 46/94/133 45/92/130 68/93/131 70/95/134
s 2
f 4/132/45 5/133/46 71/153/135 69/152/132
s 5
f 47/96/136 46/94/133 70/95/134 72/97/137
s 2
f 5/133/46 6/134/47 73/154/138 71/153/135
s 5
f 48/98/139 47/96/136 72/97/137 74/99/140
s 2
f 6/134/47 7/135/48 75/155/141 73/154/138
s 5
f 49/100/142 48/98/139 74/99/140 76/101/143
s 2
f 7/135/48 8/136/49 77/156/144 75/155/141
s 5
f 50/102/145 49/100/142 76/101/143 78/103/146
s 2
f 8/136/49 9/137/50 79/157/147 77/156/144
s 5
f 51/104/148 50/102/145 78/103/146 80/105/149
s 2
f 9/137/50 10/138/51 81/158/150 79/157/147
s 5
f 52/106/151 51/104/148 80/105/149 82/107/152
s 2
f 10/138/51 11/139/52 83/159/153 81/158/150
s 5
f 53/108/154 52/106/151 82/107/152 84/109/155
s 2
f 11/139/52 12/140/53 85/160/156 83/159/153
s 5
f 54/110/157 53/108/154 84/109/155 86/111/158
s 2
f 12/140/53 13/141/54 87/161/159 85/160/156
s 5
f 55/112/160 54/110/157 86/111/158 88/113/161
s 2
f 13/141/54 14/142/55 89/162/162 87/161/159
s 5
f 56/114/163 55/112/160 88/113/161 90/115/164
s 2
f 14/142/55 15/143/56 91/163/165 89/162/162
s 5
f 57/116/166 56/114/163 90/115/164 92/117/167
s 2
f 15/143/56 16/144/57 93/164/168 91/163/165
s 5
f 58/118/169 57/116/166 92/117/167 94/119/170
s 2
f 16/144/57 17/145/58 95/165/171 93/164/168
s 5
f 59/120/172 58/118/169 94/119/170 96/121/173
s 2
f 17/145/58 18/146/59 97/166/174 95/165/171
s 5
f 60/122/175 59/120/172 96/121/173 98/123/176
s 2
f 18/146/59 19/147/60 99/167/177 97/166/174
s 5
f 61/124/178 60/122/175 98/123/176 100/125/179
s 2
f 19/147/60 20/148/61 101/168/180 99/167/177
s 5
f 62/126/181 61/124/178 100/125/179 102/127/182
s 2
f 20/148/61 1/129/42 63/150/124 101/168/180
s 5
f 43/89/126 62/126/181 102/127/182 66/90/127
s off
f 103/13/183 104/14/184 106/15/185 105/16/186
s 6
f 111/17/187 112/18/188 108/19/189 107/20/190
s off
f 107/20/191 108/19/192 110/21/193 109/22/194
s 7
f 109/22/195 110/21/196 113/23/197 114/24/198
s 8
f 112/7/199 113/8/200 110/9/201 108/10/202
s 9
f 109/1/203 114/2/204 111/3/205 107/4/206
s 6
f 105/16/207 106/15/208 112/18/188 111/17/187
s 8
f 104/11/209 113/8/200 112/7/199 106/12/210
s 7
f 114/24/198 113/23/197 104/14/211 103/13/212
s 9
f 111/3/205 114/2/204 103/5/213 105/6/214
