# This file uses centimeters as units for non-parametric coordinates.

mtllib Big_Book.mtl
g default
v 0.205802 -0.235793 -1.007652
v 0.003964 -0.235793 -1.007652
v 0.003964 -0.235793 1.007653
v 0.205802 -0.235793 1.007653
v 2.313451 -0.356866 1.007653
v 2.313451 -0.356866 -1.007652
v -0.205802 -0.235793 1.007653
v -0.003964 -0.235793 1.007653
v -0.003964 -0.235793 -1.007652
v -0.205802 -0.235793 -1.007652
v -2.313451 -0.356866 -1.007652
v -2.313450 -0.356866 1.007653
v 0.205800 0.112409 1.007653
v 0.205799 0.112409 -1.007652
v 2.313451 -0.073950 1.007653
v 2.313451 -0.073950 -1.007652
v -0.205799 0.119936 -1.007652
v -0.205799 0.119936 1.007653
v -2.313451 -0.073950 -1.007652
v -2.313450 -0.073950 1.007653
v 0.003595 -0.190526 -1.007652
v 0.003595 -0.190526 1.007653
v -0.003595 -0.190482 1.007653
v -0.003595 -0.190482 -1.007652
v 1.259626 -0.296330 -1.007652
v 1.259627 -0.296330 1.007653
v 1.259625 0.385548 1.007653
v 1.259624 0.385548 -1.007652
v -1.259626 -0.296330 -1.007652
v -1.259627 -0.296330 1.007653
v -1.259625 0.385548 1.007653
v -1.259624 0.385548 -1.007653
v -0.732715 -0.266061 -1.007652
v -0.732714 -0.266061 1.007653
v -0.732712 0.439550 1.007653
v -0.732712 0.439550 -1.007653
v -1.786538 -0.326598 -1.007652
v -1.786538 0.265612 -1.007652
v -1.786538 0.265612 1.007653
v -1.786539 -0.326598 1.007653
v 0.732714 -0.266061 -1.007652
v 0.732712 0.435786 -1.007652
v 0.732712 0.435786 1.007653
v 0.732714 -0.266061 1.007653
v 1.786538 -0.326598 -1.007652
v 1.786539 -0.326598 1.007653
v 1.786538 0.265612 1.007653
v 1.786538 0.265612 -1.007652
v 0.469258 -0.250928 -1.007652
v 0.469255 0.352452 -1.007652
v 0.469256 0.352452 1.007653
v 0.469259 -0.250928 1.007653
v -0.469258 -0.250928 -1.007652
v -0.469258 -0.250928 1.007653
v -0.469255 0.358097 1.007653
v -0.469255 0.358097 -1.007652
v 0.091172 -0.235793 -1.007652
v 0.091173 -0.235793 1.007653
v 0.091172 -0.018506 1.007653
v 0.091171 -0.018506 -1.007652
v -0.091173 -0.235793 1.007653
v -0.091172 -0.015468 1.007653
v -0.091171 -0.015469 -1.007652
v -0.091173 -0.235793 -1.007652
v 0.159950 -0.235793 -1.007652
v 0.159950 -0.235793 1.007653
v 0.159948 0.060043 1.007652
v 0.159948 0.060043 -1.007652
v -0.159948 0.065774 -1.007652
v -0.159948 0.065774 1.007653
v -0.159950 -0.235793 1.007653
v -0.159950 -0.235793 -1.007652
v 0.091172 -0.401794 -1.007652
v 0.091173 -0.401794 1.007653
v 0.003964 -0.401794 1.007653
v 0.003964 -0.401794 -1.007652
v -0.159950 -0.401794 1.007653
v -0.159950 -0.401794 -1.007652
v -0.091173 -0.401794 -1.007652
v -0.091173 -0.401794 1.007653
v -0.003964 -0.401794 1.007653
v -0.003964 -0.401794 -1.007652
v 0.159950 -0.401794 -1.007652
v 0.159950 -0.401794 1.007653
v 2.431576 -0.434927 1.107433
v 2.431577 -0.434927 -1.107432
v 2.431576 -0.352922 1.107433
v 2.431577 -0.352922 -1.107432
v -2.431576 -0.352922 1.107433
v -2.431577 -0.352922 -1.107432
v -2.431576 -0.434927 1.107433
v -2.431577 -0.434927 -1.107432
v 0.000000 -0.439549 -1.107432
v 0.000000 -0.439549 1.107433
v -0.214621 -0.313855 1.107433
v -0.214622 -0.313855 -1.107432
v -0.214622 -0.231850 -1.107432
v -0.214621 -0.231850 1.107433
v 0.214621 -0.231850 1.107433
v 0.214621 -0.231850 -1.107432
v 0.214621 -0.313855 -1.107432
v 0.214621 -0.313855 1.107433
v -0.217133 -0.439549 -1.107432
v -0.217132 -0.439549 1.107433
v 0.217133 -0.439549 -1.107432
v 0.217133 -0.439549 1.107433
v -0.150235 -0.231850 -1.107432
v -0.150235 -0.313855 -1.107432
v -0.151993 -0.439549 -1.107432
v -0.151992 -0.439549 1.107433
v -0.150235 -0.313855 1.107433
v -0.150235 -0.231850 1.107433
v 0.151993 -0.439549 -1.107432
v 0.150234 -0.313855 -1.107432
v 0.150234 -0.231850 -1.107432
v 0.150235 -0.231850 1.107433
v 0.150235 -0.313855 1.107433
v 0.151993 -0.439549 1.107433
v 0.000000 -0.389272 1.107433
v 0.151289 -0.389272 1.107433
v 0.216128 -0.389272 1.107433
v 0.216127 -0.389272 -1.107432
v 0.151289 -0.389272 -1.107432
v 0.000000 -0.389272 -1.107432
v -0.151290 -0.389272 -1.107432
v -0.216128 -0.389272 -1.107432
v -0.216128 -0.389272 1.107433
v -0.151289 -0.389272 1.107433
vt 0.536156 0.326160
vt 0.537143 0.570598
vt 0.472944 0.570858
vt 0.471956 0.326420
vt 0.163798 0.327665
vt 0.164786 0.572103
vt 0.099241 0.572368
vt 0.098254 0.327930
vt 0.441296 0.680255
vt 0.441656 0.639493
vt 0.458016 0.639637
vt 0.458010 0.648130
vt 0.481038 0.787209
vt 0.497399 0.787187
vt 0.497454 0.827951
vt 0.480981 0.795702
vt 0.368410 0.047981
vt 0.821150 0.056713
vt 0.819925 0.120270
vt 0.367184 0.111538
vt 0.221427 0.754117
vt 0.222557 0.626199
vt 0.321354 0.632751
vt 0.320191 0.764415
vt 0.617925 0.913016
vt 0.617748 0.781347
vt 0.716591 0.775535
vt 0.716763 0.903458
vt 0.450364 0.843826
vt 0.450287 0.787251
vt 0.463190 0.787233
vt 0.463246 0.828567
vt 0.475497 0.681127
vt 0.475863 0.639795
vt 0.488766 0.639909
vt 0.488265 0.696482
vt 0.694031 0.758295
vt 0.695162 0.630376
vt 0.794060 0.625572
vt 0.793078 0.736669
vt 0.816655 0.209814
vt 0.364492 0.185349
vt 0.367926 0.121873
vt 0.820090 0.146337
vt 0.145259 0.881728
vt 0.145109 0.770627
vt 0.243968 0.776172
vt 0.244141 0.904095
vt 0.374106 0.326815
vt 0.375094 0.571253
vt 0.351681 0.571348
vt 0.350693 0.326910
vt 0.314161 0.571499
vt 0.313173 0.327061
vt 0.326084 0.327009
vt 0.327072 0.571447
vt 0.815434 0.769723
vt 0.815584 0.880824
vt 0.601700 0.325896
vt 0.602688 0.570334
vt 0.122778 0.730744
vt 0.123760 0.619647
vt 0.342827 0.781717
vt 0.343005 0.914093
vt 0.228043 0.327405
vt 0.229030 0.571843
vt 0.595094 0.767551
vt 0.596265 0.635181
vt 0.392256 0.784490
vt 0.392410 0.898745
vt 0.261490 0.327270
vt 0.262478 0.571708
vt 0.545806 0.751834
vt 0.546816 0.637583
vt 0.892957 0.620767
vt 0.892488 0.673842
vt 0.023210 0.572675
vt 0.022223 0.328237
vt 0.046250 0.765082
vt 0.046322 0.818158
vt 0.370753 0.636027
vt 0.369753 0.749219
vt 0.439429 0.570993
vt 0.438441 0.326555
vt 0.568478 0.897449
vt 0.568326 0.784252
vt 0.914278 0.763911
vt 0.914349 0.816988
vt 0.677731 0.325588
vt 0.678719 0.570026
vt 0.024963 0.613095
vt 0.024494 0.666169
vt 0.420151 0.639303
vt 0.419575 0.704624
vt 0.396199 0.571168
vt 0.395211 0.326730
vt 0.518904 0.787158
vt 0.518992 0.852482
vt 0.441685 0.787262
vt 0.441776 0.853999
vt 0.304566 0.327096
vt 0.305554 0.571534
vt 0.497367 0.639985
vt 0.496777 0.706719
vt 0.479632 0.795712
vt 0.479551 0.787211
vt 0.350809 0.571351
vt 0.349821 0.326913
vt 0.459503 0.639650
vt 0.459359 0.648150
vt 0.510302 0.787170
vt 0.510376 0.842670
vt 0.386769 0.326764
vt 0.387757 0.571202
vt 0.428263 0.694877
vt 0.428753 0.639379
vt 0.480996 0.756067
vt 0.497357 0.756045
vt 0.441931 0.608351
vt 0.458291 0.608496
vt 0.489041 0.608768
vt 0.476138 0.608654
vt 0.450245 0.756108
vt 0.463148 0.756091
vt 0.459778 0.608509
vt 0.429028 0.608237
vt 0.479509 0.756069
vt 0.510260 0.756027
vt 0.856470 0.258326
vt 0.359735 0.227918
vt 0.360861 0.209527
vt 0.857596 0.239934
vt 0.196649 0.024707
vt 0.193290 0.158713
vt 0.189394 0.158616
vt 0.192754 0.024610
vt 0.856514 0.294949
vt 0.359735 0.265269
vt 0.360834 0.246876
vt 0.857613 0.276556
vt 0.951546 0.564210
vt 0.939862 0.564400
vt 0.939713 0.555227
vt 0.951397 0.555037
vt 0.970440 0.404117
vt 0.982122 0.403873
vt 0.982314 0.413046
vt 0.970631 0.413290
vt 0.148142 0.157582
vt 0.151501 0.023576
vt 0.155397 0.023673
vt 0.152037 0.157679
vt 0.952392 0.616194
vt 0.940709 0.616384
vt 0.940559 0.607210
vt 0.952243 0.607020
vt 0.981230 0.361067
vt 0.969548 0.361311
vt 0.969357 0.352138
vt 0.981039 0.351895
vt 0.013853 0.300704
vt 0.013809 0.166655
vt 0.148184 0.166612
vt 0.148228 0.300660
vt 0.917320 0.239645
vt 0.929004 0.239455
vt 0.330982 0.028075
vt 0.327622 0.162081
vt 0.959962 0.729485
vt 0.971645 0.729242
vt 0.013809 0.154214
vt 0.017169 0.020208
vt 0.928602 0.932528
vt 0.940285 0.932338
vt 0.189728 0.300647
vt 0.189684 0.166598
vt 0.324059 0.166555
vt 0.324102 0.300603
vt 0.945528 0.036661
vt 0.957211 0.036418
vt 0.155836 0.300658
vt 0.155793 0.166609
vt 0.159735 0.166608
vt 0.159779 0.300656
vt 0.178177 0.300650
vt 0.178133 0.166602
vt 0.182076 0.166601
vt 0.182119 0.300649
vt 0.152749 0.166610
vt 0.152793 0.300659
vt 0.185162 0.300648
vt 0.185119 0.166600
vt 0.959891 0.413728
vt 0.959699 0.404491
vt 0.958800 0.361384
vt 0.958608 0.352147
vt 0.929967 0.616774
vt 0.929817 0.607536
vt 0.929115 0.564425
vt 0.928964 0.555187
vt 0.168934 0.166605
vt 0.168978 0.300653
vt 0.951636 0.361433
vt 0.959249 0.382938
vt 0.952087 0.383087
vt 0.951442 0.352153
vt 0.922655 0.607752
vt 0.922806 0.617033
vt 0.929466 0.585980
vt 0.922302 0.586097
vt 0.921950 0.564442
vt 0.921799 0.555161
vt 0.952538 0.404740
vt 0.952731 0.414020
vt 0.187792 0.024485
vt 0.184433 0.158491
vt 0.183229 0.024371
vt 0.179869 0.158377
vt 0.174075 0.024141
vt 0.170716 0.158148
vt 0.161562 0.157918
vt 0.164922 0.023912
vt 0.156999 0.157804
vt 0.160358 0.023798
vn 0.159417 0.987211 -0.000000
vn 0.159417 0.987211 -0.000000
vn -0.041837 0.999124 0.000000
vn -0.041837 0.999124 0.000000
vn -0.162850 0.986651 -0.000000
vn -0.162850 0.986651 -0.000000
vn -0.399686 0.916652 0.000000
vn -0.399686 0.916652 0.000000
vn 0.000000 -0.000000 -1.000000
vn 0.000000 -0.000000 -1.000000
vn 0.000000 -0.000000 -1.000000
vn 0.000000 -0.000000 -1.000000
vn 0.000003 0.000001 1.000000
vn 0.000004 0.000001 1.000000
vn 0.000004 0.000001 1.000000
vn 0.000003 0.000001 1.000000
vn 1.000000 0.000000 0.000000
vn 1.000000 0.000000 0.000000
vn 1.000000 0.000000 0.000000
vn 1.000000 0.000000 0.000000
vn 0.000000 -0.000000 -1.000000
vn 0.000000 -0.000000 -1.000000
vn -0.000000 -0.000000 -1.000000
vn -0.000000 -0.000000 -1.000000
vn -0.000000 0.000000 1.000000
vn -0.000000 0.000000 1.000000
vn -0.000000 0.000000 1.000000
vn -0.000000 0.000000 1.000000
vn 0.000001 0.000000 1.000000
vn 0.000000 0.000000 1.000000
vn -0.000001 0.000001 1.000000
vn -0.000001 0.000001 1.000000
vn 0.000001 -0.000000 -1.000000
vn 0.000001 -0.000000 -1.000000
vn 0.000000 -0.000000 -1.000000
vn 0.000000 -0.000000 -1.000000
vn -0.000000 -0.000000 -1.000000
vn -0.000000 -0.000000 -1.000000
vn -0.000000 -0.000000 -1.000000
vn -0.000000 -0.000000 -1.000000
vn -1.000000 0.000000 0.000000
vn -1.000000 0.000000 0.000000
vn -1.000000 0.000000 0.000000
vn -1.000000 0.000000 0.000000
vn -0.000000 -0.000000 1.000000
vn -0.000000 -0.000000 1.000000
vn -0.000000 -0.000000 1.000000
vn -0.000000 -0.000000 1.000000
vn -0.848382 0.529384 0.000000
vn -0.848382 0.529384 0.000000
vn -0.891158 0.453693 0.000000
vn -0.891158 0.453693 0.000000
vn 0.763235 0.646121 -0.000000
vn 0.763235 0.646121 -0.000000
vn 0.853649 0.520849 -0.000000
vn 0.853649 0.520849 -0.000000
vn 0.000000 0.000000 1.000000
vn -0.000000 0.000000 1.000000
vn 0.399686 0.916652 0.000000
vn 0.399686 0.916652 0.000000
vn 0.000000 -0.000000 -1.000000
vn -0.000000 -0.000000 -1.000000
vn 0.000000 -0.000000 1.000000
vn 0.000000 -0.000000 1.000000
vn 0.034710 0.999398 -0.000000
vn 0.034710 0.999397 -0.000000
vn 0.000000 -0.000000 -1.000000
vn 0.000000 -0.000000 -1.000000
vn 0.000000 -0.000000 1.000000
vn 0.000000 -0.000000 1.000000
vn 0.518625 0.855002 -0.000000
vn 0.518625 0.855002 -0.000000
vn 0.000000 -0.000000 -1.000000
vn 0.000000 -0.000000 -1.000000
vn -0.000001 0.000000 -1.000000
vn -0.000001 0.000000 -1.000000
vn -0.541697 0.840574 0.000000
vn -0.541697 0.840574 0.000000
vn -0.000000 0.000000 1.000000
vn -0.000000 0.000000 1.000000
vn -0.000000 0.000000 -1.000000
vn -0.000000 0.000000 -1.000000
vn -0.523069 0.852290 0.000000
vn -0.523069 0.852290 0.000000
vn 0.000000 -0.000000 1.000000
vn 0.000000 -0.000000 1.000000
vn 0.000000 0.000000 1.000000
vn 0.000000 0.000000 1.000000
vn 0.541697 0.840574 0.000000
vn 0.541697 0.840574 0.000000
vn -0.000000 0.000000 -1.000000
vn -0.000000 0.000000 -1.000000
vn -0.000000 0.000000 -1.000000
vn -0.000000 0.000000 -1.000000
vn -0.686979 0.726678 0.000000
vn -0.686978 0.726678 0.000000
vn 0.000000 -0.000001 1.000000
vn 0.000000 -0.000001 1.000000
vn 0.000000 -0.000000 1.000000
vn 0.000000 -0.000000 1.000000
vn 0.686872 0.726779 -0.000000
vn 0.686872 0.726779 -0.000000
vn 0.000000 -0.000000 -1.000000
vn 0.000000 -0.000000 -1.000000
vn -0.000054 0.000001 1.000000
vn -0.000054 0.000001 1.000000
vn -0.000054 0.000001 1.000000
vn -0.000054 0.000001 1.000000
vn 0.006201 0.999981 0.000000
vn 0.006201 0.999981 0.000000
vn 0.006201 0.999981 0.000000
vn 0.006201 0.999981 0.000000
vn -0.000006 -0.000004 -1.000000
vn -0.000006 -0.000004 -1.000000
vn -0.000006 -0.000004 -1.000000
vn -0.000006 -0.000004 -1.000000
vn -0.000003 0.000001 1.000000
vn -0.000007 0.000001 1.000000
vn -0.752356 0.658757 0.000000
vn -0.752356 0.658757 0.000000
vn 0.000000 0.000000 -1.000000
vn 0.000000 0.000000 -1.000000
vn 0.000001 0.000001 1.000000
vn 0.000001 0.000001 1.000000
vn 0.894284 0.447499 -0.000000
vn 0.894284 0.447499 -0.000000
vn 0.000000 -0.000001 -1.000000
vn 0.000000 -0.000001 -1.000000
vn -0.000012 0.000000 1.000000
vn -0.000012 0.000000 1.000000
vn 0.000000 0.000000 -1.000000
vn 0.000000 0.000000 -1.000000
vn 0.000002 -0.000000 1.000000
vn 0.000002 -0.000000 1.000000
vn -0.000000 -0.000000 -1.000000
vn -0.000000 -0.000000 -1.000000
vn 0.000003 0.000000 1.000000
vn 0.000003 0.000000 1.000000
vn 0.000003 0.000000 1.000000
vn 0.000003 0.000000 1.000000
vn 0.000000 0.000000 -1.000000
vn 0.000000 0.000000 -1.000000
vn 0.000000 0.000000 -1.000000
vn 0.000000 0.000000 -1.000000
vn -1.000000 0.000000 0.000000
vn -1.000000 0.000000 0.000000
vn -1.000000 0.000000 0.000000
vn -1.000000 0.000000 0.000000
vn -0.000003 0.000000 -1.000000
vn -0.000003 0.000000 -1.000000
vn -0.000003 0.000000 -1.000000
vn -0.000003 0.000000 -1.000000
vn -0.000001 0.000000 1.000000
vn -0.000001 0.000000 1.000000
vn -0.000001 0.000000 1.000000
vn -0.000001 0.000000 1.000000
vn -0.000045 0.000000 1.000000
vn -0.000045 0.000000 1.000000
vn -0.000045 0.000000 1.000000
vn -0.000045 0.000000 1.000000
vn -0.000023 0.000000 -1.000000
vn -0.000023 0.000000 -1.000000
vn -0.000023 0.000000 -1.000000
vn -0.000023 0.000000 -1.000000
vn 1.000000 0.000000 0.000000
vn 1.000000 0.000000 0.000000
vn 1.000000 0.000000 0.000000
vn 1.000000 0.000000 0.000000
vn 0.000004 0.000000 1.000000
vn 0.000004 0.000000 1.000000
vn 0.000004 0.000000 1.000000
vn 0.000004 0.000000 1.000000
vn 0.000000 0.000000 -1.000000
vn 0.000000 0.000000 -1.000000
vn 0.000000 0.000000 -1.000000
vn 0.000000 0.000000 -1.000000
vn 0.000002 0.000000 -1.000000
vn 0.000002 0.000000 -1.000000
vn 0.000002 0.000000 -1.000000
vn 0.000002 0.000000 -1.000000
vn 0.000001 0.000000 1.000000
vn 0.000001 0.000000 1.000000
vn 0.000001 0.000000 1.000000
vn 0.000001 0.000000 1.000000
vn 1.000000 0.000000 0.000000
vn 1.000000 0.000000 0.000000
vn 1.000000 0.000000 0.000000
vn 1.000000 0.000000 0.000000
vn -0.052996 0.998595 0.000000
vn -0.052996 0.998595 0.000000
vn 0.000000 1.000000 0.000000
vn 0.000000 1.000000 0.000000
vn -1.000000 0.000000 0.000000
vn -1.000000 0.000000 0.000000
vn -1.000000 0.000000 0.000000
vn -1.000000 0.000000 0.000000
vn 0.000000 0.000000 -1.000000
vn 0.000000 0.000001 -1.000000
vn -0.000000 0.000000 -1.000000
vn -0.000000 0.000000 -1.000000
vn 0.000000 -0.000001 1.000000
vn 0.000000 0.000000 1.000000
vn 0.000000 0.000000 1.000000
vn 0.000000 -0.000000 1.000000
vn 0.052996 0.998595 -0.000000
vn 0.052996 0.998595 -0.000000
vn 0.000000 1.000000 0.000000
vn 0.000000 1.000000 0.000000
vn 0.000000 0.000000 -1.000000
vn 0.000000 -0.000000 -1.000000
vn 0.000000 -0.000001 -1.000000
vn 0.000000 0.000000 -1.000000
vn 0.000000 0.000000 1.000000
vn 0.000000 0.000001 1.000000
vn -0.000000 0.000000 1.000000
vn -0.000000 0.000000 1.000000
vn 0.054530 -0.998512 0.000000
vn 0.054530 -0.998512 0.000000
vn 0.054530 -0.998512 0.000000
vn 0.054530 -0.998512 0.000000
vn -0.000000 0.000000 -1.000000
vn -0.000000 0.000000 -1.000000
vn -0.054530 0.998512 0.000000
vn -0.054530 0.998512 0.000000
vn 0.000000 0.000000 1.000000
vn 0.000000 0.000000 1.000000
vn 0.054530 0.998512 -0.000000
vn 0.054530 0.998512 -0.000000
vn 0.000000 0.000000 -1.000000
vn 0.000000 0.000000 -1.000000
vn -0.054530 -0.998512 0.000000
vn -0.054530 -0.998512 0.000000
vn -0.054530 -0.998512 0.000000
vn -0.054530 -0.998512 0.000000
vn -0.000000 0.000000 1.000000
vn -0.000000 0.000000 1.000000
vn 0.000000 -1.000000 0.000000
vn 0.000000 -1.000000 0.000000
vn 0.000000 -1.000000 0.000000
vn 0.000000 -1.000000 0.000000
vn 0.000000 -1.000000 0.000000
vn 0.000000 -1.000000 0.000000
vn 0.000000 -1.000000 0.000000
vn 0.000000 -1.000000 0.000000
vn -0.999800 0.019976 0.000000
vn -0.999801 0.019976 0.000000
vn -0.999801 0.019973 0.000000
vn -0.999801 0.019973 0.000000
vn 0.999800 0.019976 -0.000000
vn 0.999801 0.019976 -0.000000
vn 0.999800 0.019981 -0.000000
vn 0.999800 0.019981 -0.000000
vn 0.000000 0.000000 1.000000
vn 0.000000 0.000001 1.000000
vn 0.000000 -0.000001 1.000000
vn 0.000000 -0.000000 1.000000
vn 0.000000 0.000000 -1.000000
vn 0.000000 0.000001 -1.000000
vn 0.000000 -0.000001 -1.000000
vn 0.000000 -0.000000 -1.000000
vn 0.000000 -1.000000 0.000000
vn 0.000000 -1.000000 0.000000
vn 0.000000 -0.000002 1.000000
vn 0.000000 0.000000 1.000000
vn 0.000000 0.000000 1.000000
vn 0.000000 -0.000002 1.000000
vn 0.999800 0.019989 -0.000000
vn 0.999800 0.019989 -0.000000
vn 0.000000 0.000002 -1.000000
vn 0.000000 0.000002 -1.000000
vn 0.000000 0.000000 -1.000000
vn 0.000000 0.000000 -1.000000
vn 0.000000 -0.000002 -1.000000
vn 0.000000 -0.000002 -1.000000
vn -0.999801 0.019970 0.000000
vn -0.999801 0.019970 0.000000
vn 0.000000 0.000002 1.000000
vn 0.000000 0.000002 1.000000
vn 1.000000 0.000000 -0.000000
vn 1.000000 0.000000 -0.000000
vn 1.000000 0.000000 -0.000000
vn 1.000000 0.000000 -0.000000
vn 0.999902 -0.013984 -0.000000
vn 0.999902 -0.013984 -0.000000
vn 0.999902 -0.013984 -0.000000
vn 0.999902 -0.013984 -0.000000
vn 0.000000 1.000000 0.000000
vn 0.000000 1.000000 0.000000
vn 0.000000 1.000000 0.000000
vn 0.000000 1.000000 0.000000
vn 0.000000 1.000000 -0.000000
vn 0.000000 1.000000 -0.000000
vn 0.000000 1.000000 -0.000000
vn 0.000000 1.000000 -0.000000
vn -0.999902 -0.013984 0.000000
vn -0.999902 -0.013984 0.000000
vn -0.999902 -0.013984 0.000000
vn -0.999902 -0.013984 0.000000
vn -1.000000 0.000000 0.000000
vn -1.000000 0.000000 0.000000
vn -1.000000 0.000000 0.000000
vn -1.000000 0.000000 0.000000
s 1
g Big_Book
usemtl initialShadingGroup
f 27/1/1 28/2/2 42/3/3 43/4/4
s 2
f 31/5/5 32/6/6 38/7/7 39/8/8
s 3
f 60/9/9 57/10/10 2/11/11 21/12/12
s 4
f 3/13/13 58/14/14 59/15/15 22/16/16
s off
f 5/17/17 6/18/18 16/19/19 15/20/20
s 5
f 28/21/21 25/22/22 41/23/23 42/24/24
s 6
f 43/25/25 44/26/26 26/27/27 27/28/28
s 7
f 70/29/29 71/30/30 61/31/31 62/32/32
s 8
f 63/33/33 64/34/34 72/35/35 69/36/36
s 9
f 32/37/37 29/38/38 37/39/39 38/40/40
s off
f 11/41/41 12/42/42 20/43/43 19/44/44
s 10
f 39/45/45 40/46/46 30/47/47 31/48/48
s 1
f 59/49/49 60/50/50 21/51/51 22/52/52
s 2
f 69/53/53 70/54/54 62/55/55 63/56/56
s 6
f 27/28/28 26/27/27 46/57/57 47/58/58
s 1
f 47/59/59 48/60/60 28/2/2 27/1/1
s 5
f 48/61/61 45/62/62 25/22/22 28/21/21
s 10
f 31/48/48 30/47/47 34/63/63 35/64/64
s 2
f 35/65/65 36/66/66 32/6/6 31/5/5
s 9
f 36/67/67 33/68/68 29/38/38 32/37/37
s 10
f 35/64/64 34/63/63 54/69/69 55/70/70
s 2
f 55/71/71 56/72/72 36/66/66 35/65/65
s 9
f 56/73/73 53/74/74 33/68/68 36/67/67
f 38/40/40 37/39/39 11/75/75 19/76/76
s 2
f 39/8/8 38/7/7 19/77/77 20/78/78
s 10
f 12/79/79 40/46/46 39/45/45 20/80/80
s 5
f 42/24/24 41/23/23 49/81/81 50/82/82
s 1
f 43/4/4 42/3/3 50/83/83 51/84/84
s 6
f 51/85/85 52/86/86 44/26/26 43/25/25
f 47/58/58 46/57/57 5/87/87 15/88/88
s 1
f 15/89/89 16/90/90 48/60/60 47/59/59
s 5
f 6/91/91 45/62/62 48/61/61 16/92/92
f 50/82/82 49/81/81 1/93/93 14/94/94
s 1
f 51/84/84 50/83/83 14/95/95 13/96/96
s 6
f 4/97/97 52/86/86 51/85/85 13/98/98
s 10
f 55/70/70 54/69/69 7/99/99 18/100/100
s 2
f 18/101/101 17/102/102 56/72/72 55/71/71
s 9
f 10/103/103 53/74/74 56/73/73 17/104/104
s off
f 3/13/105 22/16/106 23/105/107 8/106/108
f 22/52/109 21/51/110 24/107/111 23/108/112
f 21/12/113 2/11/114 9/109/115 24/110/116
s 4
f 59/15/15 58/14/14 66/111/117 67/112/118
s 1
f 67/113/119 68/114/120 60/50/50 59/49/49
s 3
f 68/115/121 65/116/122 57/10/10 60/9/9
s 7
f 62/32/32 61/31/31 8/106/123 23/105/124
s 2
f 63/56/56 62/55/55 23/108/125 24/107/126
s 8
f 9/109/127 64/34/34 63/33/33 24/110/128
s 4
f 67/112/118 66/111/117 4/97/129 13/98/130
s 1
f 14/95/95 68/114/120 67/113/119 13/96/96
s 3
f 1/93/131 65/116/122 68/115/121 14/94/132
s 2
f 18/101/101 70/54/54 69/53/53 17/102/102
s 7
f 7/99/133 71/30/30 70/29/29 18/100/134
s 8
f 69/36/36 72/35/35 10/103/135 17/104/136
s off
f 58/14/137 3/13/138 75/117/139 74/118/140
f 2/11/141 57/10/142 73/119/143 76/120/144
f 71//145 72//146 78//147 77//148
f 72/35/149 64/34/150 79/122/151 78/121/152
f 61/31/153 71/30/154 77/123/155 80/124/156
f 3/13/157 8/106/158 81/127/159 75/117/160
f 9/109/161 2/11/162 76/120/163 82/125/164
f 65//165 66//166 84//167 83//168
f 66/111/169 58/14/170 74/118/171 84/128/172
f 57/10/173 65/116/174 83/126/175 73/119/176
f 64/34/177 9/109/178 82/125/179 79/122/180
f 8/106/181 61/31/182 80/124/183 81/127/184
f 85/129/185 86/130/186 88/131/187 87/132/188
s 13
f 97/133/189 98/134/190 112/135/191 107/136/192
s off
f 89/137/193 90/138/194 92/139/195 91/140/196
s 14
f 107/141/197 108/142/198 96/143/199 97/144/200
s 15
f 111/145/201 112/146/202 98/147/203 95/148/204
s 16
f 99/149/205 100/150/206 115/151/207 116/152/208
s 14
f 100/153/209 101/154/210 114/155/211 115/156/212
s 15
f 116/157/213 117/158/214 102/159/215 99/160/216
s off
f 91/161/217 92/162/218 96/163/219 95/164/220
s 14
f 97/144/200 96/143/199 92/165/221 90/166/222
s 13
f 98/134/190 97/133/189 90/167/223 89/168/224
s 15
f 91/169/225 95/148/204 98/147/203 89/170/226
s 16
f 87/171/227 88/172/228 100/150/206 99/149/205
s 14
f 86/173/229 101/154/210 100/153/209 88/174/230
s off
f 102/175/231 101/176/232 86/177/233 85/178/234
s 15
f 99/160/216 102/159/215 85/179/235 87/180/236
s 19
f 104/181/237 103/182/238 109/183/239 110/184/240
f 118/185/241 113/186/242 105/187/243 106/188/244
s 21
f 95/164/245 96/163/246 126/189/247 127/190/248
s 22
f 101/176/249 102/175/250 121/191/251 122/192/252
s 15
f 127/193/253 128/194/254 111/145/201 95/148/204
f 120/195/255 121/196/256 102/159/215 117/158/214
s 14
f 122/197/257 123/198/258 114/155/211 101/154/210
f 125/199/259 126/200/260 96/143/199 108/142/198
s 19
f 110/184/240 109/183/239 93/201/261 94/202/262
f 94/202/262 93/201/261 113/186/242 118/185/241
s 15
f 118/203/263 120/195/255 119/204/264 94/205/265
f 106/206/266 121/196/256 120/195/255 118/203/263
s 22
f 122/192/252 121/191/251 106/188/267 105/187/268
s 14
f 113/207/269 123/198/258 122/197/257 105/208/270
f 124/209/271 123/198/258 113/207/269 93/210/272
f 109/211/273 125/199/259 124/209/271 93/210/272
f 103/212/274 126/200/260 125/199/259 109/211/273
s 21
f 127/190/248 126/189/247 103/182/275 104/181/276
s 15
f 110/213/277 128/194/254 127/193/253 104/214/278
f 119/204/264 128/194/254 110/213/277 94/205/265
s off
f 108/215/279 107/136/280 112/135/281 111/216/282
f 125/217/283 108/215/284 111/216/285 128/218/286
f 124/219/287 125/217/288 128/218/289 119/220/290
f 119/220/291 120/221/292 123/222/293 124/219/294
f 120/221/295 117/223/296 114/224/297 123/222/298
f 115/151/299 114/224/300 117/223/301 116/152/302
