# This file uses centimeters as units for non-parametric coordinates.

mtllib Book_Case.mtl
g default
v -1.569719 -0.568562 0.449950
v 1.560320 -0.568562 0.481524
v -1.569719 0.568562 0.449950
v 1.560320 0.568562 0.481524
v -1.560665 0.568562 -0.447412
v 1.569372 0.568562 -0.415838
v -1.560665 -0.568562 -0.447412
v 1.569372 -0.568562 -0.415838
v 1.594432 0.568566 0.481866
v 1.560325 0.602676 0.481523
v 1.577377 0.585621 0.481696
v 1.603828 0.568566 -0.449605
v 1.569720 0.602676 -0.449950
v -1.603829 0.568566 0.449605
v -1.586776 0.585621 0.449777
v -1.569721 0.602676 0.449948
v -1.594435 0.568566 -0.481866
v -1.560326 0.602676 -0.481523
v 1.569720 -0.602676 -0.449950
v 1.603828 -0.568566 -0.449605
v 1.594432 -0.568566 0.481866
v 1.577377 -0.585621 0.481696
v 1.560325 -0.602676 0.481523
v -1.594435 -0.568566 -0.481866
v -1.560326 -0.602676 -0.481523
v -1.603829 -0.568566 0.449605
v -1.569721 -0.602676 0.449948
v -1.586776 -0.585621 0.449777
vt 0.258264 0.630975
vt 0.360252 0.631716
vt 0.357762 0.974429
vt 0.262718 0.018136
vt 0.361234 0.496653
vt 0.259246 0.495912
vt 0.261737 0.153199
vt 0.363725 0.153940
vt 0.363763 0.148659
vt 0.261775 0.147917
vt 0.262680 0.023418
vt 0.364668 0.024159
vt 0.259207 0.501194
vt 0.361196 0.501935
vt 0.360291 0.626435
vt 0.258303 0.625693
vt 0.364707 0.018878
vt 0.255774 0.973688
vt 0.254557 0.627213
vt 0.130057 0.626309
vt 0.252012 0.977395
vt 0.123805 0.972729
vt 0.126295 0.630016
vt 0.127513 0.976491
vt 0.364026 0.626461
vt 0.364930 0.501962
vt 0.463184 0.502676
vt 0.462279 0.627175
vt 0.805896 0.505167
vt 0.804991 0.629666
vt 0.904149 0.505881
vt 0.903244 0.630380
vt 0.461565 0.725429
vt 0.804277 0.727919
vt 0.463897 0.404423
vt 0.806610 0.406914
vt 0.367498 0.148686
vt 0.368403 0.024187
vt 0.363987 0.631743
vt 0.361497 0.974456
vt 0.362133 0.629862
vt 0.364014 0.628009
vt 0.359616 0.976310
vt 0.361470 0.978191
vt 0.808491 0.405059
vt 0.810345 0.406940
vt 0.806637 0.403179
vt 0.462043 0.402542
vt 0.463924 0.400688
vt 0.460163 0.404396
vn 0.000000 1.000000 0.000000
vn 0.000000 1.000000 0.000000
vn 0.000000 1.000000 0.000000
vn 0.000000 1.000000 0.000000
vn 0.000000 -1.000000 0.000000
vn 0.000000 -1.000000 0.000000
vn 0.000000 -1.000000 0.000000
vn 0.000000 -1.000000 0.000000
vn 0.999949 0.000000 0.010087
vn 0.999949 0.000000 0.010087
vn 0.999949 0.000000 0.010087
vn 0.999949 0.000000 0.010087
vn -0.999949 0.000000 -0.010085
vn -0.999949 0.000000 -0.010085
vn -0.999949 0.000000 -0.010085
vn -0.999949 0.000000 -0.010085
vn 0.000000 -1.000000 0.000000
vn 0.000000 -1.000000 0.000000
vn 0.000000 -1.000000 0.000000
vn 0.000000 -1.000000 0.000000
vn -0.010087 0.000000 0.999949
vn -0.010087 0.000000 0.999949
vn -0.010087 0.000000 0.999949
vn -0.010087 0.000000 0.999949
vn 0.000000 1.000000 0.000000
vn 0.000000 1.000000 0.000000
vn 0.000000 1.000000 0.000000
vn 0.000000 1.000000 0.000000
vn -0.999949 0.000000 -0.010087
vn -0.999949 0.000000 -0.010087
vn -0.999949 0.000000 -0.010087
vn -0.999949 0.000000 -0.010087
vn 0.999949 0.000000 0.010089
vn 0.999949 0.000000 0.010089
vn 0.999949 0.000000 0.010089
vn 0.999949 0.000000 0.010089
vn -0.010089 0.000019 0.999949
vn -0.010070 0.000034 0.999949
vn -0.010087 0.000040 0.999949
vn -0.010091 0.000008 0.999949
vn -0.010087 0.000051 0.999949
vn -0.010087 0.000045 0.999949
vn -0.010087 0.000035 0.999949
vn -0.010065 -0.000014 0.999949
vn -0.010089 -0.000023 0.999949
vn -0.010087 -0.000027 0.999949
vn -0.010048 -0.000006 0.999950
vn -0.010087 -0.000034 0.999949
vn -0.010087 -0.000048 0.999949
vn -0.010087 -0.000078 0.999949
vn -0.010035 -0.000000 0.999950
vn -0.010093 -0.000000 0.999949
vn 0.010087 -0.000022 -0.999949
vn 0.010086 -0.000000 -0.999949
vn 0.010086 -0.000000 -0.999949
vn 0.010086 0.000000 -0.999949
vn 0.010086 0.000000 -0.999949
vn 0.010087 0.000007 -0.999949
vn 0.010086 0.000001 -0.999949
vn 0.010086 0.000001 -0.999949
vn 0.707078 0.707100 0.007133
vn 0.707078 0.707100 0.007133
vn 0.707078 0.707100 0.007133
vn 0.707078 0.707100 0.007133
vn -0.707068 0.707109 -0.007132
vn -0.707068 0.707109 -0.007132
vn -0.707068 0.707109 -0.007132
vn -0.707068 0.707109 -0.007132
vn 0.707080 -0.707097 0.007133
vn 0.707080 -0.707097 0.007133
vn 0.707080 -0.707097 0.007133
vn 0.707080 -0.707097 0.007133
vn -0.707071 -0.707107 -0.007132
vn -0.707071 -0.707107 -0.007132
vn -0.707071 -0.707107 -0.007132
vn -0.707071 -0.707107 -0.007132
vn 0.000000 0.000000 0.000000
vn 0.000000 0.000000 0.000000
vn 0.591919 0.580615 0.559034
vn -0.000000 0.000000 -0.000000
vn -0.559600 0.547942 -0.621778
vn -0.000000 0.000000 -0.000000
vn 0.000000 -0.000000 0.000000
vn 0.603144 -0.590579 0.536128
vn 0.000000 -0.000000 0.000000
vn -0.000000 -0.000000 -0.000000
vn -0.000000 -0.000000 -0.000000
vn -0.581359 -0.569248 -0.581359
s off
g BookCase
usemtl initialShadingGroup
f 18/1/1 16/2/2 10/3/3 13/18/4
f 27/5/5 25/6/6 19/7/7 23/8/8
f 21/9/9 20/10/10 12/11/11 9/12/12
f 24/13/13 26/14/14 14/15/15 17/16/16
f 3/33/17 5/28/18 6/30/19 4/34/20
f 5/28/21 7/27/22 8/29/23 6/30/24
f 7/27/25 1/35/26 2/36/27 8/29/28
f 2/31/29 4/32/30 6/30/31 8/29/32
f 7/27/33 5/28/34 3/25/35 1/26/36
s 1
f 3/39/37 4/40/38 15/41/39 14/42/40
f 16/2/41 15/41/39 4/40/38 11/43/42
f 11/43/42 10/3/43 16/2/41
f 2/36/44 1/35/45 22/45/46 21/46/47
f 23/47/48 22/45/46 1/35/45 28/48/49
f 28/48/49 27/49/50 23/47/48
f 11/43/42 4/40/38 9/44/51
f 2/37/44 21/9/47 9/12/51 4/38/38
f 28/48/49 1/35/45 26/50/52
f 3/25/37 14/15/40 26/14/52 1/26/45
s 3
f 18/1/53 13/18/54 17/19/55
f 24/20/56 17/19/55 13/18/54 12/21/57
f 19/22/58 25/23/59 20/24/60
f 20/24/60 25/23/59 24/20/56 12/21/57
s off
f 10/17/61 9/12/62 12/11/63 13/4/64
f 14/15/65 16/2/66 18/1/67 17/16/68
f 19/7/69 20/10/70 21/9/71 23/8/72
f 24/13/73 25/6/74 27/5/75 26/14/76
f 9//77 10//78 11//79
f 14//80 15//81 16//82
f 21//83 22//84 23//85
f 26//86 27//87 28//88
