# This file uses centimeters as units for non-parametric coordinates.

mtllib Book.mtl
g default
v -0.142837 0.568562 -0.434810
v -0.142837 -0.568562 -0.434810
v 0.143998 -0.568562 -0.434432
v 0.143998 0.568562 -0.434432
v -0.114152 -0.568562 -0.434773
v -0.114152 0.568562 -0.434773
v 0.118185 -0.568562 -0.434465
v 0.118185 0.568562 -0.434465
v -0.115277 -0.523077 0.419921
v -0.115277 0.523077 0.419921
v 0.117059 -0.523077 0.420228
v 0.117059 0.523077 0.420228
v -0.114152 -0.523077 -0.434773
v 0.118185 -0.523077 -0.434465
v -0.114152 0.523077 -0.434773
v 0.118185 0.523077 -0.434465
v -0.114111 0.568562 -0.465729
v -0.114111 -0.568562 -0.465729
v 0.118225 0.568562 -0.465420
v 0.118225 -0.568562 -0.465420
v -0.142813 0.568562 -0.452860
v -0.129891 0.568562 -0.465747
v -0.129891 -0.568562 -0.465747
v -0.142813 -0.568562 -0.452860
v 0.131133 0.568562 -0.465404
v 0.144022 0.568562 -0.452480
v 0.131133 -0.568562 -0.465404
v 0.144022 -0.568562 -0.452480
v -0.144022 -0.513986 0.465368
v -0.143950 -0.568562 0.410792
v -0.115302 -0.541274 0.438117
v -0.115337 -0.513986 0.465406
v -0.115266 -0.568562 0.410830
v -0.143950 0.568562 0.410792
v -0.144022 0.513986 0.465368
v -0.115302 0.541274 0.438117
v -0.115266 0.568562 0.410830
v -0.115337 0.513986 0.465406
v 0.117035 -0.541274 0.438425
v 0.117070 -0.568562 0.411138
v 0.116999 -0.513986 0.465714
v 0.142812 -0.513986 0.465747
v 0.142884 -0.568562 0.411172
v 0.117035 0.541274 0.438425
v 0.116999 0.513986 0.465714
v 0.117070 0.568562 0.411138
v 0.142812 0.513986 0.465747
v 0.142884 0.568562 0.411172
vt 0.106227 0.681232
vt 0.025606 0.681781
vt 0.023136 0.318768
vt 0.103756 0.318219
vt 0.021116 0.022191
vt 0.101736 0.021642
vt 0.108243 0.977809
vt 0.027622 0.978358
vt 0.619415 0.556792
vt 0.122675 0.557234
vt 0.619408 0.549899
vt 0.122669 0.550341
vt 0.122579 0.448847
vt 0.619318 0.448405
vt 0.122574 0.443209
vt 0.619313 0.442767
vt 0.122690 0.573091
vt 0.619429 0.572649
vt 0.123018 0.942483
vt 0.146881 0.966302
vt 0.595938 0.965903
vt 0.619757 0.942041
vt 0.619299 0.426909
vt 0.122560 0.427351
vt 0.618970 0.057517
vt 0.595108 0.033698
vt 0.146051 0.034097
vt 0.619422 0.564764
vt 0.122683 0.565206
vt 0.122567 0.435236
vt 0.619306 0.434794
vt 0.122231 0.057959
vt 0.646978 0.663917
vt 0.637146 0.862705
vt 0.631594 0.863280
vt 0.641452 0.662735
vt 0.986045 0.671153
vt 0.983162 0.871795
vt 0.978155 0.870916
vt 0.981065 0.671834
vt 0.649664 0.648363
vt 0.788801 0.560756
vt 0.792787 0.564805
vt 0.653449 0.652448
vt 0.642686 0.874775
vt 0.788183 0.974301
vt 0.782552 0.974224
vt 0.638456 0.878492
vt 0.975143 0.660027
vt 0.840325 0.565680
vt 0.844139 0.562269
vt 0.978798 0.656559
vt 0.975551 0.886184
vt 0.838401 0.977033
vt 0.834713 0.973495
vt 0.972038 0.882604
vt 0.795938 0.573171
vt 0.836808 0.573771
vt 0.972270 0.668726
vt 0.978104 0.665931
vt 0.831271 0.965235
vt 0.777501 0.970085
vt 0.645818 0.866118
vt 0.639916 0.868740
vt 0.782507 0.977763
vt 0.785008 0.980323
vt 0.788104 0.980355
vt 0.794162 0.558933
vt 0.789780 0.558348
vt 0.792219 0.557397
vt 0.833474 0.979523
vt 0.839232 0.559518
vt 0.837562 0.979520
vt 0.835167 0.980653
vt 0.843401 0.559704
vt 0.840992 0.558640
vt 0.650214 0.658182
vt 0.655844 0.661303
vt 0.969383 0.873828
vt 0.975096 0.876760
vt 0.771839 0.977062
vt 0.788144 0.965658
vt 0.768285 0.981432
vn -0.001330 0.000000 0.999999
vn -0.001330 0.000000 0.999999
vn -0.001330 0.000000 0.999999
vn -0.001330 0.000000 0.999999
vn -0.001322 0.000000 0.999999
vn -0.001322 0.000000 0.999999
vn -0.001322 0.000000 0.999999
vn -0.001322 0.000000 0.999999
vn -0.001293 0.000000 0.999999
vn -0.001293 0.000000 0.999999
vn -0.001293 0.000000 0.999999
vn -0.001293 0.000000 0.999999
vn 0.001149 0.000000 -0.999999
vn 0.001319 0.000000 -0.999999
vn 0.001317 0.000000 -0.999999
vn 0.001319 0.000000 -0.999999
vn 0.001314 0.000000 -0.999999
vn 0.001322 0.000000 -0.999999
vn 0.001255 0.000000 -0.999999
vn 0.001255 0.000000 -0.999999
vn -0.999999 0.000000 -0.001317
vn -0.999999 -0.000000 -0.001317
vn -0.999999 -0.000000 -0.001317
vn -0.999999 -0.000000 -0.001317
vn -0.999999 -0.000000 -0.001317
vn -0.999999 0.000007 -0.001317
vn 0.000000 -1.000000 0.000000
vn 0.000000 -1.000000 0.000000
vn 0.000000 -1.000000 0.000000
vn 0.000000 -1.000000 0.000000
vn 0.000000 1.000000 0.000000
vn 0.000000 1.000000 0.000000
vn 0.000000 1.000000 0.000000
vn 0.000000 1.000000 0.000000
vn 0.000000 -1.000000 -0.000000
vn 0.000000 -1.000000 -0.000000
vn 0.000000 -1.000000 -0.000000
vn 0.000000 -1.000000 -0.000000
vn 0.000000 1.000000 0.000000
vn 0.000000 1.000000 0.000000
vn 0.000000 1.000000 0.000000
vn 0.000000 1.000000 0.000000
vn 0.000000 -1.000000 0.000000
vn 0.000000 -1.000000 0.000000
vn 0.000000 -1.000000 0.000000
vn 0.000000 -1.000000 0.000000
vn 0.999999 0.000000 0.001317
vn 0.999999 0.000000 0.001318
vn 0.999999 0.000000 0.001318
vn 0.999999 0.000000 0.001319
vn 0.999999 0.000000 0.001318
vn 0.999999 -0.000011 0.001317
vn 0.000000 1.000000 0.000000
vn 0.000000 1.000000 0.000000
vn 0.000000 1.000000 0.000000
vn 0.000000 1.000000 0.000000
vn -0.001326 0.000000 0.999999
vn -0.001326 0.000000 0.999999
vn -0.001326 0.000000 0.999999
vn -0.001326 0.000000 0.999999
vn -0.999999 0.000006 -0.001318
vn -0.999999 0.000006 -0.001318
vn -0.999999 0.000006 -0.001318
vn -0.999999 0.000003 -0.001320
vn -0.999999 0.000026 -0.001337
vn -0.001326 0.000000 0.999999
vn -0.001326 0.000000 0.999999
vn -0.001326 0.000000 0.999999
vn -0.001326 0.000000 0.999999
vn 0.999999 0.000006 0.001317
vn 0.999999 0.000006 0.001317
vn 0.999999 0.000006 0.001317
vn 0.999999 0.000003 0.001319
vn 0.999999 -0.000000 0.001310
vn 0.000000 1.000000 0.000001
vn 0.000000 1.000000 0.000001
vn 0.000000 1.000000 0.000001
vn 0.000000 1.000000 0.000001
vn 0.000000 1.000000 0.000000
vn 0.000000 -1.000000 0.000000
vn 0.000000 -1.000000 0.000000
vn 0.000000 -1.000000 0.000000
vn 0.000000 -1.000000 0.000000
vn 0.000000 -1.000000 0.000000
vn -0.999999 0.000000 -0.001321
vn -0.999999 0.000000 -0.001321
vn -0.999999 0.000000 -0.001321
vn -0.999999 0.000000 -0.001321
vn 0.000000 1.000000 0.000002
vn 0.000000 1.000000 0.000002
vn 0.000000 1.000000 0.000002
vn 0.000000 1.000000 0.000002
vn 0.000000 -1.000000 0.000002
vn 0.000000 -1.000000 0.000002
vn 0.000000 -1.000000 0.000002
vn 0.000000 -1.000000 0.000002
vn 0.000000 1.000000 0.000001
vn 0.000000 1.000000 0.000000
vn 0.000000 1.000000 0.000000
vn 0.000000 1.000000 0.000000
vn 0.000000 1.000000 0.000011
vn 0.999999 0.000000 0.001321
vn 0.999999 0.000000 0.001321
vn 0.999999 0.000000 0.001321
vn 0.999999 0.000000 0.001321
vn 0.000000 -1.000000 0.000000
vn 0.000000 -1.000000 0.000000
vn 0.000000 -1.000000 -0.000000
vn 0.000000 -1.000000 -0.000000
vn 0.000000 -1.000000 -0.000001
vn -0.706166 0.000000 -0.708046
vn -0.706166 0.000000 -0.708046
vn -0.706166 0.000000 -0.708046
vn -0.706166 0.000000 -0.708046
vn 0.708047 0.000000 -0.706165
vn 0.708047 0.000000 -0.706165
vn 0.708047 0.000000 -0.706165
vn 0.708047 0.000000 -0.706165
vn 0.999999 0.000000 0.001310
vn 0.999999 -0.000006 0.001317
vn 0.999999 -0.000003 0.001319
vn 0.999999 -0.000006 0.001317
vn 0.999999 -0.000006 0.001317
vn 0.999999 0.000000 0.001321
vn 0.999999 -0.000000 0.001321
vn -0.999999 -0.000000 -0.001321
vn -0.999999 -0.000003 -0.001320
vn -0.999999 0.000000 -0.001321
vn -0.999999 -0.000026 -0.001337
vn -0.999999 -0.000006 -0.001318
vn -0.999999 -0.000006 -0.001318
vn -0.999999 -0.000006 -0.001318
vn -0.000941 -0.707103 0.707110
vn -0.000941 -0.707103 0.707110
vn -0.000941 -0.707103 0.707110
vn -0.000941 -0.707103 0.707110
vn -0.000941 0.707104 0.707109
vn -0.000941 0.707104 0.707109
vn -0.000941 0.707104 0.707109
vn -0.000941 0.707104 0.707109
vn -0.000927 -0.707100 0.707113
vn -0.000927 -0.707100 0.707113
vn -0.000927 -0.707100 0.707113
vn -0.000927 -0.707100 0.707113
vn -0.000927 0.707101 0.707112
vn -0.000927 0.707101 0.707112
vn -0.000927 0.707101 0.707112
vn -0.000927 0.707101 0.707112
s off
g Book
usemtl initialShadingGroup
f 32/33/1 38/34/2 35/35/3 29/36/4
f 12/1/5 10/2/6 9/3/7 11/4/8
f 42/37/9 47/38/10 45/39/11 41/40/12
s 1
f 23/9/13 22/10/14 18/11/15
f 18/11/15 22/10/14 17/12/16 19/13/17
f 18/11/15 19/13/17 20/14/18
f 20/14/18 19/13/17 25/15/19 27/16/20
s 2
f 1/17/21 2/18/22 34/19/23
f 35/20/24 34/19/23 2/18/22 29/21/25
f 2/18/22 30/22/26 29/21/25
s off
f 30/41/27 2/42/28 5/43/29 33/44/30
f 37/45/31 6/81/32 1/83/33 34/48/34
f 9/3/35 13/5/36 14/6/37 11/4/38
f 12/1/39 16/7/40 15/8/41 10/2/42
f 40/49/43 7/50/44 3/51/45 43/52/46
s 3
f 3/23/47 4/24/48 43/25/49
f 42/26/50 43/25/49 4/24/48 47/27/51
f 4/24/48 48/32/52 47/27/51
s off
f 48/53/53 4/54/54 8/55/55 46/56/56
f 13/57/57 5/43/58 7/50/59 14/58/60
s 4
f 14/58/61 7/50/62 40/49/63 11/59/64
f 39/60/65 11/59/64 40/49/63
s off
f 16/61/66 8/55/67 6/46/68 15/82/69
s 5
f 15/62/70 6/81/71 37/45/72 10/63/73
f 36/64/74 10/63/73 37/45/72
s 6
f 21/65/75 1/47/76 6/46/77 22/66/78
f 17/67/79 22/66/78 6/46/77
s 7
f 18/68/80 5/43/81 2/42/82 24/69/83
f 24/69/83 23/70/84 18/68/80
s off
f 24/28/85 2/18/86 1/17/87 21/29/88
f 17/67/89 6/46/90 8/55/91 19/71/92
f 20/72/93 7/50/94 5/43/95 18/68/96
s 8
f 19/71/97 8/55/98 4/54/99 26/73/100
f 26/73/100 25/74/101 19/71/97
s off
f 26/30/102 4/24/103 3/23/104 28/31/105
s 9
f 28/75/106 3/51/107 7/50/108 27/76/109
f 20/72/110 27/76/109 7/50/108
s off
f 24/28/111 21/29/112 22/10/113 23/9/114
f 27/16/115 25/15/116 26/30/117 28/31/118
s 5
f 31/77/119 33/44/120 9/78/121
f 13/57/122 9/78/121 33/44/120 5/43/123
f 36/64/74 38/34/124 10/63/73
f 9/78/121 10/63/73 38/34/124 32/33/125
f 31/77/119 9/78/121 32/33/125
s 4
f 39/60/65 41/40/126 11/59/64
f 12/79/127 11/59/64 41/40/126 45/39/128
f 44/80/129 12/79/127 45/39/128
f 44/80/129 46/56/130 12/79/127
f 16/61/131 12/79/127 46/56/130 8/55/132
s off
f 32/33/133 29/36/134 30/41/135 33/44/136
f 37/45/137 34/48/138 35/35/139 38/34/140
f 42/37/141 41/40/142 40/49/143 43/52/144
f 48/53/145 46/56/146 45/39/147 47/38/148
s 5
f 31/77/119 32/33/125 33/44/120
f 36/64/74 37/45/72 38/34/124
s 4
f 39/60/65 40/49/63 41/40/126
f 44/80/129 45/39/128 46/56/130
