# This file uses centimeters as units for non-parametric coordinates.

mtllib Post_02.mtl
g default
v -0.115874 0.794183 -0.176719
v -0.115844 0.639392 -0.176051
v 0.018154 0.562042 -0.171313
v 0.152121 0.639485 -0.167241
v 0.152088 0.794276 -0.167909
v 0.018091 0.871625 -0.172647
v -0.118256 0.794494 -0.104335
v -0.118224 0.639704 -0.103667
v 0.015774 0.562354 -0.098927
v 0.149740 0.639796 -0.094855
v 0.149708 0.794587 -0.095521
v 0.015711 0.871937 -0.100261
v 0.015742 0.717145 -0.099593
v 0.600529 -0.862059 0.164863
v 0.621074 -0.331328 -0.037642
v 0.220216 -0.336857 -0.093192
v 0.209923 -0.998231 0.063441
v 0.625759 0.340770 -0.113301
v 0.222867 0.340590 -0.126804
v 0.625875 1.018721 -0.116457
v 0.222996 1.018580 -0.129705
v -0.197791 -0.340321 -0.111290
v -0.189002 -0.915535 0.012977
v -0.191954 0.338215 -0.133512
v -0.183190 1.017915 -0.142502
v -0.625875 -0.344769 -0.019566
v -0.601789 -1.018778 0.081601
v -0.623606 0.333499 -0.061459
v -0.619061 1.012529 -0.096626
v 0.597524 -0.858409 0.176719
v 0.618986 -0.328945 -0.025163
v 0.215718 -0.336531 -0.080691
v 0.207592 -0.995058 0.075614
v 0.625001 0.341311 -0.100558
v 0.221914 0.341312 -0.114091
v 0.625451 1.018777 -0.103699
v 0.222576 1.018635 -0.116948
v -0.194715 -0.337607 -0.098856
v -0.188161 -0.912958 0.025462
v -0.191466 0.338490 -0.120759
v -0.183367 1.018008 -0.129738
v -0.622359 -0.343125 -0.007363
v -0.598083 -1.016236 0.093556
v -0.620277 0.334227 -0.049157
v -0.616375 1.013078 -0.084158
vt 0.401715 0.195900
vt 0.400857 0.082493
vt 0.432492 0.098538
vt 0.431363 0.176432
vt 0.498624 0.025181
vt 0.500521 0.060603
vt 0.597026 0.081158
vt 0.567294 0.100539
vt 0.597856 0.194267
vt 0.566164 0.178290
vt 0.500354 0.251665
vt 0.498263 0.216248
vt 0.499290 0.138426
vt 0.477797 0.260413
vt 0.475563 0.464007
vt 0.330010 0.460705
vt 0.330976 0.218387
vt 0.472549 0.706064
vt 0.328129 0.703708
vt 0.468308 0.948718
vt 0.323923 0.946209
vt 0.183388 0.458881
vt 0.187909 0.248679
vt 0.180003 0.700241
vt 0.178320 0.943441
vt 0.027498 0.450500
vt 0.040459 0.206326
vt 0.024166 0.694696
vt 0.022261 0.938365
vt 0.517666 0.265901
vt 0.666683 0.226848
vt 0.661786 0.471970
vt 0.515983 0.471508
vt 0.659861 0.716651
vt 0.514423 0.716047
vt 0.659222 0.961228
vt 0.513720 0.960756
vt 0.811296 0.260593
vt 0.812232 0.472373
vt 0.809654 0.716427
vt 0.806023 0.961478
vt 0.961753 0.221024
vt 0.969603 0.467567
vt 0.967775 0.713930
vt 0.964359 0.959466
vt 0.301956 0.177962
vt 0.235886 0.190513
vt 0.235735 0.188921
vt 0.301061 0.176749
vt 0.320515 0.129533
vt 0.318965 0.129145
vt 0.153714 0.184030
vt 0.153797 0.182445
vt 0.071466 0.189833
vt 0.072332 0.188575
vt 0.066068 0.138858
vt 0.067640 0.138542
vt 0.312253 0.073345
vt 0.310685 0.073590
vt 0.061577 0.089713
vt 0.063158 0.089702
vt 0.230096 0.023433
vt 0.313700 0.017250
vt 0.312778 0.018568
vt 0.230105 0.025028
vt 0.146227 0.029682
vt 0.146442 0.031265
vt 0.063072 0.033475
vt 0.064085 0.034670
vn -0.999460 -0.000342 -0.032872
vn -0.999460 -0.000342 -0.032872
vn -0.999460 -0.000342 -0.032872
vn -0.999460 -0.000342 -0.032872
vn -0.499555 -0.866189 -0.012699
vn -0.499555 -0.866189 -0.012699
vn -0.499555 -0.866189 -0.012699
vn -0.499555 -0.866189 -0.012699
vn 0.499908 -0.865844 0.020164
vn 0.499908 -0.865844 0.020164
vn 0.499908 -0.865844 0.020164
vn 0.499908 -0.865844 0.020164
vn 0.999460 0.000351 0.032865
vn 0.999460 0.000351 0.032865
vn 0.999460 0.000351 0.032865
vn 0.999460 0.000351 0.032865
vn 0.499557 0.866188 0.012701
vn 0.499557 0.866188 0.012701
vn 0.499557 0.866188 0.012701
vn 0.499557 0.866188 0.012701
vn -0.499909 0.865843 -0.020170
vn -0.499909 0.865843 -0.020170
vn -0.499909 0.865843 -0.020170
vn -0.499909 0.865843 -0.020170
vn -0.032877 0.004307 0.999450
vn -0.032874 0.004302 0.999450
vn -0.032871 0.004302 0.999450
vn -0.032868 0.004298 0.999451
vn -0.032865 0.004297 0.999451
vn -0.032868 0.004302 0.999451
vn -0.032874 0.004307 0.999450
vn -0.235419 0.285928 0.928883
vn -0.158526 0.180243 0.970764
vn -0.101434 0.154348 0.982796
vn -0.146071 0.253962 0.956121
vn -0.059553 0.042698 0.997312
vn -0.043230 0.033800 0.998493
vn -0.033212 0.004452 0.999438
vn -0.028460 0.006680 0.999573
vn 0.068944 0.118185 0.990595
vn 0.054945 0.200799 0.978090
vn 0.069681 0.031945 0.997058
vn 0.056922 0.020145 0.998175
vn 0.174819 0.110357 0.978396
vn 0.161649 0.179075 0.970465
vn 0.160800 0.038289 0.986244
vn 0.134344 0.030881 0.990454
vn 0.235418 -0.285929 -0.928883
vn 0.145295 -0.253540 -0.956351
vn 0.101033 -0.154049 -0.982884
vn 0.159018 -0.180838 -0.970573
vn 0.043059 -0.033835 -0.998499
vn 0.059554 -0.042651 -0.997314
vn 0.028440 -0.006711 -0.999573
vn 0.033182 -0.004470 -0.999439
vn -0.054290 -0.200996 -0.978087
vn -0.068910 -0.118496 -0.990561
vn -0.069579 -0.032005 -0.997063
vn -0.056976 -0.020171 -0.998172
vn -0.162064 -0.179372 -0.970341
vn -0.175100 -0.110265 -0.978357
vn -0.160840 -0.038192 -0.986241
vn -0.134283 -0.030873 -0.990462
vn 0.979915 0.035988 0.196144
vn 0.988713 0.018357 0.148694
vn 0.988264 0.019404 0.151520
vn 0.979915 0.035988 0.196144
vn 0.010541 -0.962920 0.269581
vn 0.239614 -0.918669 0.314057
vn 0.239614 -0.918669 0.314057
vn 0.014988 -0.962579 0.270588
vn 0.996905 0.002189 0.078588
vn 0.996851 0.002239 0.079263
vn 0.998928 -0.000202 0.046291
vn 0.998928 -0.000202 0.046291
vn -0.000207 0.999990 -0.004370
vn -0.000809 0.999987 -0.005104
vn -0.000810 0.999987 -0.005105
vn -0.000207 0.999990 -0.004370
vn 0.035309 -0.982408 0.183381
vn 0.019233 -0.982491 0.185316
vn -0.007898 0.999858 -0.014912
vn -0.008315 0.999845 -0.015496
vn -0.960978 0.013872 0.276276
vn -0.958478 0.008352 0.285046
vn -0.958477 0.008352 0.285046
vn -0.961052 0.014038 0.276012
vn 0.264140 -0.952686 0.150398
vn 0.264140 -0.952686 0.150398
vn -0.967762 0.018892 0.251157
vn -0.967781 0.018889 0.251084
vn -0.014394 0.999608 -0.023998
vn -0.014394 0.999608 -0.023998
vn -0.971822 0.018190 0.235015
vn -0.971822 0.018190 0.235015
s off
g Post02
usemtl initialShadingGroup
f 1/1/1 2/2/2 8/3/3 7/4/4
f 2/2/5 3/5/6 9/6/7 8/3/8
f 3/5/9 4/7/10 10/8/11 9/6/12
f 4/7/13 5/9/14 11/10/15 10/8/16
f 5/9/17 6/11/18 12/12/19 11/10/20
f 6/11/21 1/1/22 7/4/23 12/12/24
s 1
f 7/4/25 8/3/26 13/13/27
f 8/3/26 9/6/28 13/13/27
f 9/6/28 10/8/29 13/13/27
f 10/8/29 11/10/30 13/13/27
f 11/10/30 12/12/31 13/13/27
f 12/12/31 7/4/25 13/13/27
s 2
f 30/14/32 31/15/33 32/16/34 33/17/35
f 31/15/33 34/18/36 35/19/37 32/16/34
f 34/18/36 36/20/38 37/21/39 35/19/37
f 33/17/35 32/16/34 38/22/40 39/23/41
f 32/16/34 35/19/37 40/24/42 38/22/40
f 35/19/37 37/21/39 41/25/43 40/24/42
f 39/23/41 38/22/40 42/26/44 43/27/45
f 38/22/40 40/24/42 44/28/46 42/26/44
f 40/24/42 41/25/43 45/29/47 44/28/46
s 3
f 14/30/48 17/31/49 16/32/50 15/33/51
f 15/33/51 16/32/50 19/34/52 18/35/53
f 18/35/53 19/34/52 21/36/54 20/37/55
f 17/31/49 23/38/56 22/39/57 16/32/50
f 16/32/50 22/39/57 24/40/58 19/34/52
f 19/34/52 24/40/58 25/41/59 21/36/54
f 23/38/56 27/42/60 26/43/61 22/39/57
f 22/39/57 26/43/61 28/44/62 24/40/58
f 24/40/58 28/44/62 29/45/63 25/41/59
s 4
f 14/46/64 15/47/65 31/48/66 30/49/67
s 5
f 17/50/68 14/46/69 30/49/70 33/51/71
s 4
f 15/47/65 18/52/72 34/53/73 31/48/66
f 18/52/72 20/54/74 36/55/75 34/53/73
s 6
f 20/54/76 21/56/77 37/57/78 36/55/79
s 5
f 23/58/80 17/50/68 33/51/71 39/59/81
s 6
f 21/56/77 25/60/82 41/61/83 37/57/78
s 7
f 26/62/84 27/63/85 43/64/86 42/65/87
s 5
f 27/63/88 23/58/80 39/59/81 43/64/89
s 7
f 28/66/90 26/62/84 42/65/87 44/67/91
s 6
f 25/60/82 29/68/92 45/69/93 41/61/83
s 7
f 29/68/94 28/66/90 44/67/91 45/69/95
