# This file uses centimeters as units for non-parametric coordinates.

mtllib Post_01.mtl
g default
v -0.355267 -0.528779 0.100956
v -0.367848 -0.203780 -0.023050
v -0.122379 -0.207166 -0.057067
v -0.116076 -0.612166 0.038849
v -0.370719 0.207787 -0.069382
v -0.124002 0.207676 -0.077649
v -0.370789 0.622937 -0.071313
v -0.124081 0.622851 -0.079426
v 0.121907 -0.207428 -0.080011
v 0.125718 -0.561129 -0.013544
v 0.122572 0.207406 -0.085751
v 0.122626 0.622766 -0.087540
v 0.369360 -0.207816 -0.092080
v 0.369823 -0.622972 -0.054869
v 0.369281 0.207321 -0.093863
v 0.369335 0.622681 -0.095653
v -0.353428 -0.526544 0.108216
v -0.366571 -0.202321 -0.015409
v -0.119624 -0.206966 -0.049412
v -0.114649 -0.610222 0.046304
v -0.370255 0.208118 -0.061578
v -0.123419 0.208119 -0.069865
v -0.370531 0.622972 -0.063501
v -0.123825 0.622885 -0.071614
v 0.121190 -0.205952 -0.072173
v 0.126705 -0.559790 -0.005901
v 0.122893 0.207477 -0.077941
v 0.122882 0.622799 -0.079728
v 0.370007 -0.207254 -0.084290
v 0.370790 -0.621930 -0.047183
v 0.369600 0.207391 -0.086054
v 0.369593 0.622715 -0.087840
v 0.083429 0.485439 -0.108216
v 0.083411 0.390651 -0.107807
v 0.001356 0.343285 -0.104905
v -0.080681 0.390708 -0.102412
v -0.080660 0.485496 -0.102820
v 0.001393 0.532862 -0.105722
v 0.084888 0.485630 -0.063890
v 0.084868 0.390842 -0.063481
v 0.002812 0.343476 -0.060579
v -0.079222 0.390899 -0.058085
v -0.079203 0.485687 -0.058494
v 0.002851 0.533052 -0.061397
v 0.002833 0.438264 -0.060987
vt 0.483149 0.252247
vt 0.475593 0.463311
vt 0.324045 0.457088
vt 0.331977 0.204929
vt 0.469338 0.714433
vt 0.319117 0.710082
vt 0.462396 0.966691
vt 0.312296 0.962406
vt 0.176945 0.454427
vt 0.181813 0.235550
vt 0.169172 0.705701
vt 0.162228 0.958239
vt 0.025509 0.449444
vt 0.031602 0.196230
vt 0.019026 0.701597
vt 0.012112 0.954113
vt 0.513172 0.256594
vt 0.667055 0.212529
vt 0.668452 0.468208
vt 0.516303 0.470231
vt 0.668957 0.723424
vt 0.517356 0.724451
vt 0.670238 0.978414
vt 0.518734 0.979273
vt 0.818140 0.247258
vt 0.819055 0.468116
vt 0.820503 0.722681
vt 0.821743 0.977656
vt 0.970617 0.211240
vt 0.971134 0.467163
vt 0.972071 0.721980
vt 0.973291 0.976938
vt 0.305980 0.172430
vt 0.230081 0.176302
vt 0.229955 0.174652
vt 0.305006 0.171242
vt 0.318476 0.118544
vt 0.316817 0.118497
vt 0.143156 0.178571
vt 0.143209 0.176911
vt 0.055573 0.181782
vt 0.056502 0.180485
vt 0.050392 0.127910
vt 0.052045 0.127669
vt 0.306928 0.067252
vt 0.305273 0.067609
vt 0.049172 0.075642
vt 0.050827 0.075809
vt 0.226283 0.014998
vt 0.312348 0.011560
vt 0.311279 0.012795
vt 0.226198 0.016668
vt 0.136897 0.019045
vt 0.137062 0.020706
vt 0.051587 0.020934
vt 0.052609 0.022158
vt 0.399413 0.188725
vt 0.398535 0.072548
vt 0.430942 0.088985
vt 0.429785 0.168781
vt 0.498690 0.013835
vt 0.500633 0.050123
vt 0.599495 0.071180
vt 0.569037 0.091034
vt 0.600346 0.187052
vt 0.567880 0.170684
vt 0.500462 0.245852
vt 0.498320 0.209570
vt 0.499372 0.129847
vn 0.235416 0.285929 0.928883
vn 0.181662 0.247663 0.951663
vn 0.127346 0.149937 0.980460
vn 0.158524 0.180244 0.970764
vn 0.053785 0.030436 0.998089
vn 0.059552 0.042698 0.997312
vn 0.033019 0.004364 0.999445
vn 0.033212 0.004452 0.999438
vn 0.126110 0.170942 0.977177
vn 0.087906 0.093117 0.991767
vn 0.042342 0.012265 0.999028
vn 0.032846 0.004288 0.999451
vn 0.123684 0.133288 0.983329
vn 0.081246 0.069504 0.994268
vn 0.036845 0.006665 0.999299
vn 0.032866 0.004301 0.999451
vn -0.235420 -0.285928 -0.928882
vn -0.159018 -0.180838 -0.970573
vn -0.127171 -0.149636 -0.980529
vn -0.181367 -0.247451 -0.951774
vn -0.059552 -0.042651 -0.997314
vn -0.053792 -0.030367 -0.998090
vn -0.033180 -0.004469 -0.999439
vn -0.033019 -0.004381 -0.999445
vn -0.088026 -0.093402 -0.991730
vn -0.126131 -0.171303 -0.977111
vn -0.042396 -0.012312 -0.999025
vn -0.032862 -0.004297 -0.999451
vn -0.081097 -0.069283 -0.994295
vn -0.123684 -0.133288 -0.983329
vn -0.036842 -0.006665 -0.999299
vn -0.032866 -0.004302 -0.999451
vn -0.979947 0.035927 0.195992
vn -0.979947 0.035927 0.195992
vn -0.988287 0.019366 0.151376
vn -0.988735 0.018320 0.148552
vn 0.005088 -0.968731 0.248063
vn -0.012550 -0.967287 0.253375
vn -0.239626 -0.918677 0.314027
vn -0.239626 -0.918677 0.314027
vn -0.996863 0.002230 0.079113
vn -0.996917 0.002180 0.078437
vn -0.998936 -0.000201 0.046125
vn -0.998936 -0.000201 0.046125
vn 0.000207 0.999990 -0.004379
vn 0.000207 0.999990 -0.004379
vn 0.000206 0.999991 -0.004329
vn 0.000206 0.999991 -0.004329
vn 0.001877 -0.984035 0.177967
vn 0.020539 -0.983871 0.177697
vn 0.000204 0.999991 -0.004294
vn 0.000204 0.999991 -0.004294
vn 0.996562 -0.003778 -0.082767
vn 0.996616 -0.003650 -0.082113
vn 0.994661 -0.007723 -0.102907
vn 0.994661 -0.007723 -0.102907
vn -0.214120 -0.960724 0.176528
vn -0.214120 -0.960724 0.176528
vn 0.998779 0.000053 -0.049401
vn 0.998783 0.000051 -0.049325
vn 0.000203 0.999991 -0.004309
vn 0.000203 0.999991 -0.004309
vn 0.999319 -0.000215 -0.036908
vn 0.999319 -0.000215 -0.036908
vn 0.999460 -0.000338 -0.032867
vn 0.999460 -0.000338 -0.032867
vn 0.999460 -0.000338 -0.032867
vn 0.999460 -0.000338 -0.032867
vn 0.499554 -0.866190 -0.012688
vn 0.499554 -0.866190 -0.012688
vn 0.499554 -0.866190 -0.012688
vn 0.499554 -0.866190 -0.012688
vn -0.499909 -0.865843 0.020166
vn -0.499909 -0.865843 0.020166
vn -0.499909 -0.865843 0.020166
vn -0.499909 -0.865843 0.020166
vn -0.999459 0.000353 0.032877
vn -0.999459 0.000353 0.032877
vn -0.999459 0.000353 0.032877
vn -0.999459 0.000353 0.032877
vn -0.499559 0.866187 0.012701
vn -0.499559 0.866187 0.012701
vn -0.499559 0.866187 0.012701
vn -0.499559 0.866187 0.012701
vn 0.499905 0.865846 -0.020170
vn 0.499905 0.865846 -0.020170
vn 0.499905 0.865846 -0.020170
vn 0.499905 0.865846 -0.020170
vn 0.032873 0.004307 0.999450
vn 0.032870 0.004302 0.999450
vn 0.032870 0.004302 0.999450
vn 0.032867 0.004297 0.999451
vn 0.032867 0.004297 0.999451
vn 0.032870 0.004302 0.999450
vn 0.032873 0.004308 0.999450
s 1
g Post01
usemtl initialShadingGroup
f 17/1/1 20/4/2 19/3/3 18/2/4
f 18/2/4 19/3/3 22/6/5 21/5/6
f 21/5/6 22/6/5 24/8/7 23/7/8
f 20/4/2 26/10/9 25/9/10 19/3/3
f 19/3/3 25/9/10 27/11/11 22/6/5
f 22/6/5 27/11/11 28/12/12 24/8/7
f 26/10/9 30/14/13 29/13/14 25/9/10
f 25/9/10 29/13/14 31/15/15 27/11/11
f 27/11/11 31/15/15 32/16/16 28/12/12
s 2
f 1/17/17 2/20/18 3/19/19 4/18/20
f 2/20/18 5/22/21 6/21/22 3/19/19
f 5/22/21 7/24/23 8/23/24 6/21/22
f 4/18/20 3/19/19 9/26/25 10/25/26
f 3/19/19 6/21/22 11/27/27 9/26/25
f 6/21/22 8/23/24 12/28/28 11/27/27
f 10/25/26 9/26/25 13/30/29 14/29/30
f 9/26/25 11/27/27 15/31/31 13/30/29
f 11/27/27 12/28/28 16/32/32 15/31/31
s 3
f 1/33/33 17/36/34 18/35/35 2/34/36
s 4
f 4/37/37 20/38/38 17/36/39 1/33/40
s 3
f 2/34/36 18/35/35 21/40/41 5/39/42
f 5/39/42 21/40/41 23/42/43 7/41/44
s 5
f 7/41/45 23/42/46 24/44/47 8/43/48
s 4
f 10/45/49 26/46/50 20/38/38 4/37/37
s 5
f 8/43/48 24/44/47 28/48/51 12/47/52
s 6
f 13/49/53 29/52/54 30/51/55 14/50/56
s 4
f 14/50/57 30/51/58 26/46/50 10/45/49
s 6
f 15/53/59 31/54/60 29/52/54 13/49/53
s 5
f 12/47/52 28/48/51 32/56/61 16/55/62
s 6
f 16/55/63 32/56/64 31/54/60 15/53/59
s off
f 33/57/65 39/60/66 40/59/67 34/58/68
f 34/58/69 40/59/70 41/62/71 35/61/72
f 35/61/73 41/62/74 42/64/75 36/63/76
f 36/63/77 42/64/78 43/66/79 37/65/80
f 37/65/81 43/66/82 44/68/83 38/67/84
f 38/67/85 44/68/86 39/60/87 33/57/88
s 7
f 39/60/89 45/69/90 40/59/91
f 40/59/91 45/69/90 41/62/92
f 41/62/92 45/69/90 42/64/93
f 42/64/93 45/69/90 43/66/94
f 43/66/94 45/69/90 44/68/95
f 44/68/95 45/69/90 39/60/89
